<?xml version="1.0" encoding="UTF-8"?>
<svg version="1.1" xmlns="http://www.w3.org/2000/svg" width="1112" height="1106">
<path d="M0 0 C1.33345459 0.57548584 1.33345459 0.57548584 2.69384766 1.16259766 C11.7098325 5.08492305 20.60630873 9.25578558 29.47485352 13.49975586 C31.64984062 14.53755627 33.83003181 15.56452301 36.01538086 16.58032227 C40.62422384 18.74816839 44.99572479 20.84674538 49.08984375 23.89453125 C52.91540765 26.63059425 56.20698155 28.71149188 61 29 C69.40260285 27.56358028 77.36118307 24.25844108 85.27229309 21.1714325 C111.97547381 10.80857268 141.7583249 6.03914091 170.0625 2.1875 C170.78281403 2.08822205 171.50312805 1.98894409 172.24526978 1.88665771 C195.41469026 -1.26379629 218.50321596 -2.38148401 241.875 -2.3125 C243.16404236 -2.31067719 244.45308472 -2.30885437 245.78118896 -2.30697632 C266.33954649 -2.25819959 286.60423772 -1.61582286 307 1 C307.6717627 1.08485657 308.34352539 1.16971313 309.03564453 1.25714111 C371.52583091 9.1937191 430.61560666 27.89064989 487 56 C487.83547363 56.41572266 488.67094727 56.83144531 489.53173828 57.25976562 C517.6911503 71.38861042 544.08779522 88.76399378 569 108 C569.59184082 108.45294434 570.18368164 108.90588867 570.79345703 109.37255859 C586.43883083 121.35542407 601.57679954 134.31216475 615.3671875 148.40234375 C617.13465005 150.13175089 618.98649806 151.71653071 620.875 153.3125 C624.89144767 156.76959712 628.34141308 160.61344847 631.83984375 164.5859375 C633.70974699 166.67563046 635.62304821 168.66335597 637.625 170.625 C641.29502262 174.24474834 644.65301028 178.08205321 648 182 C648.80179688 182.92425781 649.60359375 183.84851563 650.4296875 184.80078125 C675.84444729 214.26968848 697.31777422 246.83716322 715.89013672 280.97265625 C716.89198685 282.80269662 717.91542722 284.62087718 718.94140625 286.4375 C755.59988322 352.56051482 774.31394008 430.04202731 759.42462158 678.03735352 C756.4467627 688.34865262 753.39542343 698.6939508 749.58349609 708.72900391 C749.11637207 709.95925293 748.64924805 711.18950195 748.16796875 712.45703125 C747.73121826 713.56667236 747.29446777 714.67631348 746.84448242 715.81958008 C745.45044136 721.06970233 746.6450437 724.89991678 749.265625 729.51953125 C749.73653564 730.36298096 750.20744629 731.20643066 750.69262695 732.07543945 C751.20656006 732.97866943 751.72049316 733.88189941 752.25 734.8125 C753.35468816 736.8010714 754.457486 738.79069383 755.55859375 740.78125 C756.41493408 742.32425781 756.41493408 742.32425781 757.28857422 743.8984375 C773.63240188 773.51783645 787.40772058 804.23511989 799 836 C799.38236816 837.04381836 799.76473633 838.08763672 800.15869141 839.16308594 C808.48591213 862.1900545 815.19580433 886.63159821 818 911 C818.0913623 911.72550049 818.18272461 912.45100098 818.27685547 913.19848633 C822.06931827 946.09015789 818.9979486 982.18364967 798.1875 1009.25 C796.81668938 1010.85504622 795.41946824 1012.43782041 794 1014 C793.18917969 1014.90363281 792.37835937 1015.80726562 791.54296875 1016.73828125 C771.99755715 1037.42837289 744.107331 1046.33354738 716.15625 1047.22265625 C661.6449364 1048.28947072 608.82766558 1029.76799798 560 1007 C558.44901611 1006.27925293 558.44901611 1006.27925293 556.86669922 1005.54394531 C532.180649 994.01832616 508.08682877 981.53475054 484.68261719 967.58740234 C481.40856993 965.65002927 478.10761824 963.76276449 474.80273438 961.87866211 C451.16047306 948.36557573 428.56561001 933.2147504 406 918 C404.99936523 917.32598145 403.99873047 916.65196289 402.96777344 915.95751953 C392.90635445 909.16689186 383.00107736 902.18288064 373.1875 895.0390625 C370.63704225 893.18281902 368.0787583 891.3401549 365.5 889.5234375 C355.57732174 882.53202983 345.96079476 875.15340373 336.32470703 867.77392578 C333.50227856 865.62020122 330.66079234 863.49438304 327.8125 861.375 C314.8651918 851.68754038 302.22240766 841.62437706 289.70556641 831.38964844 C287.37881824 829.49387824 285.03469693 827.62036479 282.6875 825.75 C273.54649835 818.45243368 264.56542246 810.97604873 255.65283203 803.40283203 C254.02971933 802.02522412 252.4040696 800.65068243 250.77734375 799.27734375 C229.22254109 781.0797319 229.22254109 781.0797319 219.2265625 772.01171875 C217.16895609 770.15265331 215.09153237 768.32071642 213 766.5 C209.10070674 763.10384136 205.263709 759.64098157 201.42578125 756.17578125 C199.36297212 754.32556437 197.2828763 752.50055191 195.1875 750.6875 C190.48361065 746.58934288 185.92315604 742.33772421 181.34765625 738.09765625 C178.30700493 735.28023599 175.24892271 732.48234985 172.1875 729.6875 C161.53120368 719.92994899 150.94297702 710.11810589 140.84375 699.78125 C138.75478274 697.73819411 136.6742386 695.84370581 134.45727539 693.95288086 C129.36448443 689.51236427 124.61054364 684.75409573 119.83984375 679.97265625 C118.8817014 679.01518975 117.92341084 678.05787155 116.96498108 677.10069275 C114.96908713 675.10626253 112.97498548 673.11006259 110.98217773 671.11254883 C108.44858137 668.57325601 105.91052017 666.03848097 103.37108517 663.50502872 C101.39509297 661.53267816 99.42152321 659.55791737 97.44864082 657.58245659 C96.06589401 656.19873372 94.6811607 654.81699686 93.29637146 653.43531799 C88.88178476 649.00444755 84.59423753 644.52812171 80.54188538 639.7620697 C77.69682078 636.51072417 74.58323004 633.52320815 71.5 630.5 C66.98052815 626.02907716 62.57419372 621.54700481 58.46875 616.6875 C56.88737031 614.87059567 55.21802804 613.1878872 53.5 611.5 C51.20673964 609.24202057 49.03571972 606.94003496 46.9375 604.5 C43.40165716 600.39489448 39.70664762 596.45004759 36 592.5 C31.80023102 588.02064765 27.63304829 583.53144588 23.62890625 578.875 C21.66334911 576.61248819 19.64326691 574.40309317 17.625 572.1875 C14.51471149 568.74621795 11.53521688 565.23678702 8.625 561.625 C5.38047483 557.61173716 2.01252817 553.77584616 -1.5 550 C-5.71346489 545.46660776 -9.68293295 540.79049761 -13.5625 535.96875 C-16.42925516 532.47718923 -19.39760184 529.08459846 -22.375 525.6875 C-27.08789871 520.29693405 -31.59363432 514.79101612 -35.97607422 509.12963867 C-39.05418048 505.1654448 -42.23501462 501.31136362 -45.5 497.5 C-50.67835312 491.44166531 -55.61925823 485.22057551 -60.50488281 478.92480469 C-62.07988183 476.89716063 -63.66060866 474.87407767 -65.2421875 472.8515625 C-82.2659189 451.05845118 -99.02867125 429.06745018 -114.89892578 406.41625977 C-116.85056349 403.63264105 -118.81016199 400.85508239 -120.78125 398.08520508 C-127.99171995 387.94411889 -134.99006252 377.67686226 -141.875 367.3125 C-142.3946936 366.53140869 -142.91438721 365.75031738 -143.4498291 364.94555664 C-156.10788485 345.91436998 -168.42133381 326.71092244 -180 307 C-180.57862793 306.01547852 -181.15725586 305.03095703 -181.75341797 304.01660156 C-225.47214404 229.41229847 -283.82419474 125.96779441 -260.96875 35.7734375 C-254.45728863 12.16726489 -240.05968632 -9.40610646 -218.7578125 -21.96875 C-153.0319587 -58.53331806 -63.63587576 -27.47076546 0 0 Z M-202 28 C-216.55246572 46.19998297 -216.73748732 69.09925647 -214.6953125 91.31445312 C-207.24202032 151.81541155 -177.72077782 211.20503618 -147.54833984 263.31347656 C-146.04248494 265.9262844 -144.55855273 268.55021096 -143.08203125 271.1796875 C-131.20485334 292.28441093 -118.34980288 312.799165 -105 333 C-104.55462891 333.67562988 -104.10925781 334.35125977 -103.65039062 335.04736328 C-93.40472829 350.57473429 -82.79036629 365.84713565 -72 381 C-71.23864746 382.07072754 -71.23864746 382.07072754 -70.46191406 383.16308594 C-62.18351217 394.78418639 -53.61530532 406.1672996 -44.92822266 417.48535156 C-43.10788829 419.8592999 -41.29295214 422.23724195 -39.48046875 424.6171875 C-29.03579644 438.3273487 -18.38051016 451.84347032 -7.4765625 465.19140625 C-6.16952459 466.7923548 -4.86576644 468.39597976 -3.5625 470 C0.86884704 475.44422636 5.37263539 480.82109569 9.91894531 486.16918945 C12.77892853 489.53888745 15.59274041 492.94048907 18.375 496.375 C23.0196943 502.07944629 27.8397374 507.62268589 32.671875 513.16796875 C34.82221615 515.63736458 36.95829919 518.11764334 39.078125 520.61328125 C45.01014051 527.59672334 51.08363193 534.4078753 57.328125 541.11328125 C60.00338777 544.00366017 62.59826954 546.94884884 65.17578125 549.92578125 C68.90484882 554.16589877 72.75341309 558.29940562 76.578125 562.453125 C78.80848578 564.87956145 81.02776442 567.31612294 83.25 569.75 C96.77024432 584.56309005 96.77024432 584.56309005 110.875 598.8125 C112.60739581 600.59584863 114.19588083 602.4025638 115.80102539 604.29663086 C121.33471495 610.63390133 127.35709036 616.50089072 133.30859375 622.44140625 C134.60236434 623.7358519 135.89598657 625.03044584 137.18946838 626.32518005 C139.89007239 629.02725151 142.59245893 631.72752381 145.29614258 634.42651367 C148.74344549 637.8681199 152.1862385 641.31419705 155.62769985 644.76164341 C158.29490212 647.43247711 160.96450368 650.10090244 163.63481331 652.76862907 C164.9044722 654.03762583 166.17340243 655.3073521 167.44155693 656.57785225 C176.18945502 665.36349605 176.18945502 665.36349605 185.41737366 673.63755798 C188.0939577 675.94175984 190.53637428 678.47272119 193 681 C196.93390584 684.98838006 200.93932405 688.79163058 205.20703125 692.42578125 C207.05429629 694.0476719 208.77756714 695.74660205 210.5 697.5 C213.39999353 700.4454073 216.43626431 703.15463709 219.56640625 705.8515625 C222.76595153 708.67620119 225.88052864 711.58750584 229 714.5 C233.30533885 718.51605179 237.62967672 722.49129246 242.08984375 726.3359375 C244.36204511 728.31540126 246.58459872 730.3458317 248.8125 732.375 C252.27530082 735.50422827 255.80679003 738.50500349 259.4375 741.4375 C263.24087503 744.51336588 266.90082652 747.68753166 270.5 751 C274.89378548 755.03954818 279.41838824 758.84679619 284.0625 762.59375 C287.36353303 765.2977877 290.58765213 768.08111232 293.8125 770.875 C299.03325051 775.38701575 304.37316509 779.70255046 309.82617188 783.9296875 C313.74563999 786.97961921 317.54888956 790.13544398 321.3125 793.375 C327.61996709 798.78737045 334.20107442 803.80668516 340.82421875 808.82421875 C344.50097039 811.6108535 348.13335197 814.44853626 351.75 817.3125 C364.45392935 827.3407378 377.28931443 837.21865984 390.5234375 846.5390625 C393.0257186 848.30173895 395.50584787 850.09177912 397.9765625 851.8984375 C410.77275522 861.24634364 423.85834365 870.14647906 437 879 C438.38545915 879.93743721 439.77088217 880.87492783 441.15625 881.8125 C480.20363274 908.14309998 520.90200462 931.91494902 563 953 C564.14130371 953.57266602 565.28260742 954.14533203 566.45849609 954.73535156 C613.21928049 978.05585726 682.14702112 1010.61612933 735.75 994.26953125 C740.81625555 992.29052518 745.45951142 989.99562459 750 987 C750.59167969 986.61070312 751.18335938 986.22140625 751.79296875 985.8203125 C761.78758192 978.36931553 766.60280235 964.83418399 768.60742188 953.01611328 C776.25004294 894.29911039 745.68487956 831.05066272 720 780 C719.34 780 718.68 780 718 780 C717.16082031 781.65708984 717.16082031 781.65708984 716.3046875 783.34765625 C699.26391834 816.58096229 677.88052656 847.3356895 654 876 C653.2869873 876.86165771 653.2869873 876.86165771 652.55957031 877.74072266 C646.0704874 885.57621081 639.3427196 893.1576683 632.35302734 900.55029297 C631.10404633 901.88851911 629.88824011 903.25750321 628.67578125 904.62890625 C627.99902344 905.37011719 627.32226562 906.11132812 626.625 906.875 C626.06039062 907.51179687 625.49578125 908.14859375 624.9140625 908.8046875 C622.03924133 910.59998398 620.25299083 909.74778355 617 909 C614.7337909 908.0891262 612.4973963 907.10198082 610.2890625 906.05859375 C609.67606293 905.77146011 609.06306335 905.48432648 608.43148804 905.18849182 C606.49265145 904.2783982 604.55883897 903.3581577 602.625 902.4375 C601.30370521 901.81507589 599.98209344 901.19332421 598.66015625 900.57226562 C595.43640214 899.05593512 592.21706897 897.53047185 589 896 C594.19579942 889.7535492 599.84231064 884.09377489 605.63476562 878.40429688 C610.31451563 873.77500239 614.72261639 869.00165863 619 864 C619.94935758 862.91694798 620.8998198 861.83486292 621.8515625 860.75390625 C629.65208425 851.81021657 636.89857479 842.50488189 644 833 C644.73331543 832.02281006 644.73331543 832.02281006 645.48144531 831.02587891 C654.87648874 818.48314369 663.52880775 805.56794638 671.6875 792.1875 C672.22947021 791.30876221 672.77144043 790.43002441 673.32983398 789.5246582 C673.82298096 788.70570068 674.31612793 787.88674316 674.82421875 787.04296875 C675.26854248 786.31102295 675.71286621 785.57907715 676.1706543 784.82495117 C676.44433838 784.22271729 676.71802246 783.6204834 677 783 C676.67 782.34 676.34 781.68 676 781 C674.9697168 781.29543701 673.93943359 781.59087402 672.87792969 781.89526367 C621.79462667 796.50397236 570.2871872 809.45698552 518 819 C517.14038491 823.05573717 516.28604533 827.11254649 515.43652344 831.17041016 C515.14694746 832.54994491 514.8559459 833.92918123 514.56347656 835.30810547 C514.14270539 837.2931722 513.7271167 839.27926488 513.3125 841.265625 C512.93544922 843.05661621 512.93544922 843.05661621 512.55078125 844.88378906 C511.88396707 848.12907276 511.88396707 848.12907276 512 852 C504.54699543 848.25640367 497.40135517 843.94758506 490.3125 839.5625 C489.40274414 839.02536377 488.49298828 838.48822754 487.55566406 837.93481445 C485.14453868 836.41490668 483.0148704 835.01718834 481 833 C480.41796875 829.08984375 480.41796875 829.08984375 481 826 C480.45214844 826.11601563 479.90429688 826.23203125 479.33984375 826.3515625 C470.55691438 827.35124552 464.9364756 822.54960752 458.24072266 817.63134766 C455.76131871 815.8262292 453.25027032 814.0724761 450.73046875 812.32421875 C447.22671769 809.89303171 443.7269534 807.45669517 440.23828125 805.00390625 C439.156073 804.24315796 439.156073 804.24315796 438.05200195 803.46704102 C436.01103905 802.00789216 434.00100546 800.51335365 432 799 C433.5374479 797.4625521 435.1683164 797.58185567 437.30102539 797.27563477 C438.21610367 797.14202042 439.13118195 797.00840607 440.07398987 796.8707428 C441.07179977 796.72906174 442.06960968 796.58738068 443.09765625 796.44140625 C444.12048203 796.29219223 445.1433078 796.14297821 446.1971283 795.98924255 C449.48502609 795.5097102 452.7736549 795.03548896 456.0625 794.5625 C460.366577 793.94345741 464.66982407 793.31903633 468.97265625 792.69140625 C469.95629654 792.55174942 470.93993683 792.41209259 471.9533844 792.26820374 C477.41051926 791.47179063 482.67490355 790.43837684 488 789 C489.47068022 783.40205485 490.61375115 777.84792194 491.515625 772.1328125 C491.65189804 771.28202118 491.78817108 770.43122986 491.92857361 769.55465698 C492.37507508 766.74568106 492.81381497 763.93559577 493.25 761.125 C493.47860214 759.65522705 493.47860214 759.65522705 493.71182251 758.15576172 C501.15790288 709.98464522 505.95492157 661.52779836 508.75 612.875 C508.84781265 611.23877182 508.84781265 611.23877182 508.94760132 609.56948853 C510.09933254 589.99598203 510 570.66428043 510 551 C427.5 551 345 551 260 551 C259.67 585.98 259.34 620.96 259 657 C253.39 651.72 247.78 646.44 242 641 C239.0403125 638.98777344 236.080625 636.97554687 233.03125 634.90234375 C227.96567024 630.77765164 225.75196522 626.55258572 224.87347412 620.04064369 C223.89740762 610.12159182 224.16432763 600.15088713 224.43780518 590.20288086 C224.54202843 585.77825105 224.55393224 581.35340404 224.57421875 576.92773438 C224.62715002 568.28238384 224.78064859 559.64272425 225 551 C224.08704163 551.01633987 223.17408325 551.03267975 222.23345947 551.04951477 C213.58378757 551.19262757 204.9362782 551.27221753 196.28538895 551.28240681 C191.83860522 551.28983308 187.39472417 551.32087325 182.94873047 551.40795898 C178.64879839 551.49128044 174.35279996 551.50985538 170.05217743 551.48558617 C168.42075056 551.48736334 166.78917282 551.51156354 165.1584549 551.55968666 C151.76065343 551.93166765 151.76065343 551.93166765 146.39442444 547.16868591 C143.754851 544.47728524 141.43284299 541.59728553 139.1931324 538.56890869 C137.50438584 536.34829248 135.59697099 534.36758193 133.65234375 532.37109375 C133.02779297 531.70916016 132.40324219 531.04722656 131.75976562 530.36523438 C130.51078103 529.04396128 129.26072631 527.72369918 128.00976562 526.40429688 C127.39681641 525.75396484 126.78386719 525.10363281 126.15234375 524.43359375 C125.61601318 523.86697021 125.07968262 523.30034668 124.52709961 522.71655273 C122.91149402 520.9005139 121.45840469 518.94453959 120 517 C154.65 516.67 189.3 516.34 225 516 C225 430.2 225 344.4 225 256 C173.93158616 257.60118733 173.93158616 257.60118733 123 261 C122.04683899 261.08272156 121.09367798 261.16544312 120.1116333 261.25067139 C95.28805289 263.42521153 70.56170291 266.16787142 45.875 269.5625 C44.84238037 269.70425659 43.80976074 269.84601318 42.74584961 269.99206543 C27.78457605 272.06092248 12.88622751 274.44881882 -2 277 C-3.74771255 282.59875752 -4.76008914 288.14134532 -5.62109375 293.9375 C-5.83923485 295.37234741 -5.83923485 295.37234741 -6.06178284 296.83618164 C-6.36896358 298.86311591 -6.67392543 300.89038755 -6.97680664 302.91796875 C-7.42789012 305.93571005 -7.88614858 308.95228849 -8.34570312 311.96875 C-10.41270945 325.6231383 -12.26724551 339.29936405 -14 353 C-16.63323738 350.47274212 -18.85096646 347.97493372 -20.8828125 344.9453125 C-21.40584961 344.17179443 -21.92888672 343.39827637 -22.46777344 342.60131836 C-23.0146582 341.7841333 -23.56154297 340.96694824 -24.125 340.125 C-25.27742992 338.41975056 -26.43108882 336.71533106 -27.5859375 335.01171875 C-28.15795898 334.16786621 -28.72998047 333.32401367 -29.31933594 332.45458984 C-32.15142631 328.31835559 -35.07515966 324.24920597 -38.01611328 320.18994141 C-45.13665233 310.33189051 -40.55093936 295.59440106 -39 284 C-40.16917969 284.22816406 -41.33835938 284.45632813 -42.54296875 284.69140625 C-44.09105426 284.98225868 -45.63923656 285.27259622 -47.1875 285.5625 C-47.95642578 285.71396484 -48.72535156 285.86542969 -49.51757812 286.02148438 C-50.26845703 286.16005859 -51.01933594 286.29863281 -51.79296875 286.44140625 C-52.4789917 286.57232666 -53.16501465 286.70324707 -53.87182617 286.83813477 C-56.52952857 287.04027503 -58.46023727 286.83608528 -61 286 C-62.58984375 284.17749023 -62.58984375 284.17749023 -63.9375 281.80859375 C-64.44023437 280.94556641 -64.94296875 280.08253906 -65.4609375 279.19335938 C-65.96882812 278.28392578 -66.47671875 277.37449219 -67 276.4375 C-68.02024185 274.66502399 -69.04106854 272.89288448 -70.0625 271.12109375 C-70.55105469 270.26241699 -71.03960937 269.40374023 -71.54296875 268.51904297 C-73.60537198 264.95338001 -75.79260636 261.47745652 -78 258 C-75.30783766 256.54764741 -72.90552483 255.63510221 -69.90576172 255.05444336 C-69.11168915 254.8976561 -68.31761658 254.74086884 -67.4994812 254.57933044 C-66.65144928 254.41779984 -65.80341736 254.25626923 -64.9296875 254.08984375 C-64.05224884 253.91747696 -63.17481018 253.74511017 -62.27078247 253.56752014 C-59.4732294 253.01868042 -56.67425375 252.47759301 -53.875 251.9375 C-51.06881963 251.39282735 -48.2629916 250.84648146 -45.45779419 250.29676819 C-43.71335703 249.9552428 -41.96831233 249.61680349 -40.22262573 249.28172302 C-35.99203065 248.51940061 -35.99203065 248.51940061 -32 247 C-31.22123435 243.95760933 -30.56560133 240.95841273 -29.96875 237.87890625 C-29.57179361 235.91316403 -29.17482018 233.94742526 -28.77783203 231.98168945 C-28.57015198 230.93679352 -28.36247192 229.89189758 -28.14849854 228.81533813 C-27.04770138 223.29379138 -25.91177143 217.77953778 -24.7734375 212.265625 C-24.54163788 211.14247391 -24.30983826 210.01932281 -24.0710144 208.86213684 C-16.97017019 174.66155621 -8.61434141 140.4274252 1.50146484 106.98876953 C1.73963425 106.19982803 1.97780365 105.41088654 2.22319031 104.59803772 C2.67495599 103.11445282 3.13343271 101.6328892 3.59968567 100.15379333 C4.91473314 96.53973622 4.91473314 96.53973622 4 93 C-11.29004549 101.91323516 -26.48776207 110.84914381 -41 121 C-41.74008301 121.51626953 -42.48016602 122.03253906 -43.24267578 122.56445312 C-53.59693985 129.82456757 -63.53628935 137.49242605 -73.26464844 145.56884766 C-74.80160365 146.83638163 -76.35658166 148.08199207 -77.9140625 149.32421875 C-89.80286357 158.81071046 -100.67765228 169.46420219 -111.25292969 180.37744141 C-111.8462207 180.98249512 -112.43951172 181.58754883 -113.05078125 182.2109375 C-113.57325439 182.75024902 -114.09572754 183.28956055 -114.6340332 183.84521484 C-116 185 -116 185 -118 185 C-120.05056151 180.52480346 -122.08031548 176.0409682 -124.09130859 171.54785156 C-124.7783642 170.02055649 -125.471048 168.49578037 -126.16943359 166.97363281 C-127.1721289 164.78567463 -128.15426067 162.58946745 -129.1328125 160.390625 C-129.44936798 159.7113092 -129.76592346 159.03199341 -130.09207153 158.33209229 C-132.17341494 153.57954077 -132.17341494 153.57954077 -131.29956055 150.65917969 C-129.61071091 148.50298541 -127.76150456 146.79226581 -125.6875 145 C-122.14448019 141.89602875 -118.64886809 138.75968844 -115.21069336 135.54101562 C-109.01556887 129.748744 -102.63177318 124.29121394 -96 119 C-94.87030792 118.07908815 -93.74144468 117.15715889 -92.61328125 116.234375 C-63.75994201 92.73305343 -32.10034337 72.93239274 1 56 C-4.1782161 51.7798782 -10.41409398 49.55680414 -16.5 46.9375 C-17.1638269 46.65065338 -17.82765381 46.36380676 -18.51159668 46.06826782 C-32.45315361 40.06358117 -46.59448354 34.79628515 -61 30 C-62.0926416 29.63535645 -63.1852832 29.27071289 -64.31103516 28.89501953 C-100.77505816 16.87098209 -170.11975267 -4.63930083 -202 28 Z M260 33 C260 95.37 260 157.74 260 222 C279.47 222.66 298.94 223.32 319 224 C367.68786864 226.67655822 415.96419146 231.19390702 464.25271606 237.94714355 C469.82767747 238.72331392 475.40288219 239.40310706 481 240 C480.36751476 233.18791583 479.17782878 226.67147738 477.6640625 220.00390625 C477.42920135 218.95454391 477.19434021 217.90518158 476.95236206 216.82402039 C476.18326378 213.40196177 475.4052421 209.98203408 474.625 206.5625 C474.3571167 205.38417603 474.0892334 204.20585205 473.81323242 202.99182129 C465.86287492 168.09963379 456.61368946 133.6440754 446.31005859 99.37597656 C445.48554289 96.6313773 444.67143715 93.88428923 443.87353516 91.13183594 C442.95297339 87.95769983 442.01186045 84.79061488 441.0625 81.625 C440.81661133 80.7577832 440.57072266 79.89056641 440.31738281 78.99707031 C438.96873792 74.55898336 438.96873792 74.55898336 435.73120117 71.40844727 C400.33699022 53.15608265 357.16939504 43.96942311 318 38 C317.00790527 37.84837402 316.01581055 37.69674805 314.99365234 37.54052734 C296.80300478 34.82972838 278.39635619 33 260 33 Z M123 47 C121.95247559 47.25475098 120.90495117 47.50950195 119.82568359 47.77197266 C106.48457674 51.06238018 93.43018427 55.05007228 80.4375 59.5 C79.78834625 59.72134613 79.1391925 59.94269226 78.47036743 60.17074585 C75.2819184 61.26345786 72.11240131 62.389658 68.95751953 63.57592773 C66.16424627 64.61938276 63.36686668 65.46587959 60.49169922 66.25415039 C52.69494809 68.53893953 52.69494809 68.53893953 46.70089722 73.73724365 C43.91576573 78.98357715 42.63833554 84.70134426 41.25 90.4375 C40.74343406 92.30499982 40.2305031 94.17078315 39.71166992 96.03491211 C38.62650361 99.979852 37.58404028 103.93270077 36.57373047 107.89746094 C35.0244774 113.9599242 33.35379729 119.9843472 31.66015625 126.0078125 C21.02767726 164.02256617 11.84748101 202.31837501 4 241 C5.28793457 240.82259277 6.57586914 240.64518555 7.90283203 240.46240234 C80.22673541 230.53013567 152.06576499 224.70126796 225 222 C225 159.63 225 97.26 225 33 C190.76395026 33 156.14855222 38.8646778 123 47 Z M481 94 C481.14920898 94.55196045 481.29841797 95.1039209 481.45214844 95.67260742 C482.53075572 99.66529747 483.60814326 103.65828674 484.67895508 107.65307617 C486.43633522 114.2083965 488.20609299 120.75973003 490.00628662 127.30343628 C498.2569398 157.33847192 505.35465906 187.57209466 512 218 C512.28224426 219.29224487 512.28224426 219.29224487 512.57019043 220.6105957 C514.41431215 229.0665068 516.23440451 237.52729483 518 246 C525.64222073 247.83682232 533.30960535 249.49583211 541.01171875 251.05859375 C580.66731714 259.1176003 620.0596569 268.03593965 658.90356445 279.43115234 C659.76066513 279.67901993 660.61776581 279.92688751 661.50083923 280.18226624 C663.09209688 280.64297838 664.68106092 281.11172086 666.2671051 281.59007263 C669.94386719 282.64954131 672.34949957 283.13114849 676 282 C664.44726835 262.50310699 652.14835931 243.72317463 638 226 C637.4961377 225.36610352 636.99227539 224.73220703 636.47314453 224.07910156 C630.34063196 216.38260486 624.1215883 208.83025739 617.4140625 201.625 C616.14293973 200.24280825 614.87687772 198.85471256 613.6628418 197.42211914 C607.97743782 190.7280867 601.73703061 184.58637961 595.52124023 178.39086914 C593.56704376 176.4420313 591.61824853 174.48790728 589.66992188 172.53320312 C583.61753561 166.47733842 577.56776368 160.5026141 571 155 C570.03578125 154.154375 569.0715625 153.30875 568.078125 152.4375 C558.42964328 144.1216815 548.2620766 136.53821849 538 129 C537.34322266 128.51611816 536.68644531 128.03223633 536.00976562 127.53369141 C510.06563094 106.15157546 510.06563094 106.15157546 481 94 Z M260 256 C260 341.8 260 427.6 260 516 C342.5 516 425 516 510 516 C510.00579408 484.48511708 510.00579408 484.48511708 508.75 453.0625 C508.6501329 451.32790024 508.6501329 451.32790024 508.54824829 449.55825806 C505.43373763 395.5876281 499.24604305 342.05588047 490.63671875 288.69140625 C490.41054115 287.27954292 490.41054115 287.27954292 490.17979431 285.8391571 C490.03884842 284.97772598 489.89790253 284.11629486 489.75268555 283.22875977 C489.63088425 282.48022232 489.50908295 281.73168488 489.3835907 280.96046448 C489.00408035 278.79861623 489.00408035 278.79861623 488 276 C436.21539951 267.65700817 384.2079235 261.56109163 331.84375 258.34765625 C331.14882446 258.3045079 330.45389893 258.26135956 329.73791504 258.21690369 C306.50602171 256.85156833 283.26822952 256.54112162 260 256 Z M525 283 C525.42967764 290.4303752 526.34033045 297.74593768 527.41796875 305.10546875 C527.55608978 306.04875031 527.69421082 306.99203186 527.83651733 307.96389771 C528.13234467 309.98043158 528.42834028 311.99694078 528.7244873 314.01342773 C538.53260491 381.25062096 542.16589073 447.9813775 545 516 C610.34 516 675.68 516 743 516 C743 506.09896226 742.8454792 496.61030705 741.875 486.8125 C741.81131226 486.16403107 741.74762451 485.51556213 741.68200684 484.84744263 C737.06444362 438.63214787 726.05136115 393.31875166 709.18457031 350.05322266 C708.04299407 347.11081695 706.93824231 344.15651017 705.8359375 341.19921875 C705.16400955 339.46515511 704.4896903 337.73201535 703.8125 336 C703.52818115 335.22245361 703.2438623 334.44490723 702.95092773 333.64379883 C702.66419189 332.93634521 702.37745605 332.2288916 702.08203125 331.5 C701.84718018 330.8915625 701.6123291 330.283125 701.37036133 329.65625 C697.65187506 325.16200257 689.70178135 323.88429796 684.2734375 322.28515625 C683.43011871 322.03361786 682.58679993 321.78207947 681.71792603 321.5229187 C678.93866571 320.69684666 676.15718291 319.87867205 673.375 319.0625 C672.40594727 318.77754669 671.43689453 318.49259338 670.43847656 318.19900513 C622.67715038 304.1817766 574.18152412 290.98872955 525 283 Z M545 551 C544.01 574.43 543.02 597.86 542 622 C538.89209299 669.26162041 534.1473241 716.13272815 527.18432617 762.97363281 C527.0383046 763.95860748 526.89228302 764.94358215 526.74183655 765.95840454 C526.46895681 767.79087223 526.19321367 769.62291677 525.91404724 771.45443726 C525.79304153 772.26305206 525.67203583 773.07166687 525.54736328 773.90478516 C525.44110626 774.60350739 525.33484924 775.30222961 525.22537231 776.02212524 C524.92452393 778.33060148 524.92452393 778.33060148 525 782 C531.50187154 781.46615955 537.7702126 780.567389 544.1328125 779.13671875 C545.41275337 778.85538841 545.41275337 778.85538841 546.71855164 778.56837463 C549.52241528 777.94884922 552.32386822 777.31925633 555.125 776.6875 C556.10407318 776.46791626 557.08314636 776.24833252 558.09188843 776.02209473 C595.15511889 767.6938825 631.88164085 758.34947134 668.24012756 747.32772827 C673.51995223 745.72959618 678.81103374 744.20995044 684.1328125 742.7578125 C686.29735973 742.13188217 688.46148097 741.5044751 690.625 740.875 C691.99108398 740.5342041 691.99108398 740.5342041 693.38476562 740.18652344 C697.18606019 739.02025135 699.33034613 737.93288167 701.67944336 734.66040039 C703.33663727 731.50041285 704.69004276 728.3192287 706 725 C706.51059708 723.74766218 707.02134343 722.49538522 707.53222656 721.24316406 C709.19973085 717.08491955 710.76507338 712.89166661 712.3125 708.6875 C712.5928006 707.93010529 712.8731012 707.17271057 713.16189575 706.3923645 C728.14307979 665.75870789 737.65581046 623.2841302 741.875 580.1875 C742.05518677 578.36762573 742.05518677 578.36762573 742.23901367 576.51098633 C743.00763657 567.91465554 743 559.70674429 743 551 C677.66 551 612.32 551 545 551 Z " fill="#43403F" transform="translate(293,37)"/>
<path d="M0 0 C0.66 0 1.32 0 2 0 C2.38744385 0.69971924 2.7748877 1.39943848 3.17407227 2.12036133 C4.96669025 5.35304288 6.76456416 8.5827733 8.5625 11.8125 C9.17158203 12.91271484 9.78066406 14.01292969 10.40820312 15.14648438 C11.01728516 16.23896484 11.62636719 17.33144531 12.25390625 18.45703125 C12.86250488 19.55611816 13.47110352 20.65520508 14.09814453 21.78759766 C15.94964426 24.91494469 18.01372999 27.76450511 20.15234375 30.69921875 C23.01708653 35.19165629 23.01708653 35.19165629 22.95019531 38.35620117 C22.17079788 41.02190622 21.1196793 43.45804928 20 46 C19.17346884 48.42508562 18.36914866 50.85144738 17.58203125 53.2890625 C17.13281742 54.63975825 16.68251082 55.99009097 16.23120117 57.34008789 C0.7635173 103.92211222 -7.24219882 151.02814998 -10 200 C-9.24923093 199.98525131 -8.49846186 199.97050262 -7.72494221 199.95530701 C10.58831877 199.60113 28.90089179 199.33679819 47.21685314 199.17100525 C56.07477909 199.08868433 64.93041195 198.97657932 73.78686523 198.79296875 C81.51125039 198.63290512 89.23397467 198.53013604 96.9599722 198.49458408 C101.04757909 198.47381436 105.13043742 198.4254542 109.21651268 198.30831909 C136.04858975 197.56841039 136.04858975 197.56841039 142.81192017 203.47509766 C145.75838586 206.7228014 147.96660314 210.18822014 149.96438026 214.08033752 C151.45262843 216.83900855 153.40257686 219.12885074 155.4375 221.5 C165 233.49880573 165 233.49880573 165 235 C107.25 235 49.5 235 -10 235 C-5.67705387 291.19829963 2.51722897 343.042267 22.7109375 395.60546875 C24.22479956 399.59672155 25.33668991 403.34343172 26.0390625 407.55078125 C27.16549634 413.09921462 28.58972165 417.25154867 33 421 C43.39422263 426.32677827 55.03585258 428.79758707 66.3125 431.56982422 C71.95702598 432.96656135 77.54073109 434.54124189 83.125 436.16015625 C123.92909229 447.92766655 165.29756028 457.96438864 207 466 C206.62611355 463.10401988 206.25080695 460.20823126 205.875 457.3125 C205.74593262 456.313396 205.61686523 455.31429199 205.48388672 454.28491211 C204.68044451 448.10199793 203.85513862 441.92291279 203.00099182 435.74682617 C197.13084073 393.29343213 192.57413753 350.78595002 190 308 C189.95094513 307.19325836 189.90189026 306.38651672 189.85134888 305.55532837 C189.23734852 295.29814152 188.85781403 285.09199009 188.9375 274.8125 C188.94201172 273.65814453 188.94652344 272.50378906 188.95117188 271.31445312 C188.96267207 268.54290676 188.97890801 265.77148691 189 263 C196.65707361 270.57561538 203.8543395 278.52419949 210.44189453 287.05004883 C212.89222819 290.07300973 212.89222819 290.07300973 215.95800781 292.27905273 C223.36999803 298.13952763 225.74821906 304.07822541 226.90753174 313.3926239 C227.52299329 319.72580205 227.90514785 326.07007131 228.24550629 332.42299271 C228.46464494 336.25515616 228.75090358 340.08215333 229.03564453 343.90991211 C229.1501029 345.45801502 229.26445223 347.00612599 229.37869263 348.554245 C229.43526157 349.32010107 229.49183052 350.08595715 229.55011368 350.87502098 C229.71872159 353.19492163 229.88025361 355.51521028 230.03952026 357.83576965 C230.94493786 370.95834961 232.26036896 384.00737933 233.875 397.0625 C233.99407715 398.04026398 234.1131543 399.01802795 234.23583984 400.02542114 C237.19006596 424.107497 241.06492748 448.06189271 245 472 C250.44593016 473.69054177 255.8174112 474.71448193 261.453125 475.55078125 C262.82673187 475.75929214 262.82673187 475.75929214 264.22808838 475.97201538 C267.23446403 476.42533272 270.24201287 476.87000776 273.25 477.3125 C274.29164307 477.46651276 275.33328613 477.62052551 276.40649414 477.77920532 C306.39415034 482.19585687 336.42383071 485.62309943 366.625 488.1875 C368.12442642 488.31632568 368.12442642 488.31632568 369.65414429 488.44775391 C378.82107008 489.23244283 387.97402433 490.00073945 397.16796875 490.375 C414.2759317 491.12164278 414.2759317 491.12164278 419.875 496.0625 C421.26855749 497.69265027 422.64379311 499.33864656 424 501 C425.75941141 502.49708953 427.55299259 503.95475546 429.375 505.375 C434.50395434 509.52459248 439.34906151 513.91951536 444.18359375 518.40234375 C447.72887685 521.67226506 451.34670802 524.85172191 455 528 C452.1942886 528.80548795 449.80187124 529.10003046 446.88891602 528.9934082 C446.07710876 528.96602066 445.26530151 528.93863312 444.42889404 528.91041565 C443.54614807 528.8742363 442.6634021 528.83805695 441.75390625 528.80078125 C440.81710022 528.76609238 439.88029419 528.7314035 438.9151001 528.69566345 C435.79717291 528.57623121 432.679866 528.44575173 429.5625 528.3125 C427.93844742 528.24440125 427.93844742 528.24440125 426.28158569 528.17492676 C374.39203717 525.9601896 322.64283254 521.21130352 271.25 513.6875 C269.9282074 513.49404999 269.9282074 513.49404999 268.57971191 513.29669189 C266.1407803 512.93656993 263.70296602 512.5699392 261.265625 512.19921875 C260.55075928 512.09219131 259.83589355 511.98516388 259.09936523 511.87489319 C254.23674944 511.11837472 254.23674944 511.11837472 252 510 C262.46089316 558.3886576 273.93377972 606.35184032 288.42871094 653.70898438 C289.50951895 657.26332827 290.47108624 660.82480522 291.36035156 664.43164062 C293.32609866 673.06597774 293.32609866 673.06597774 298.28125 680.08813477 C301.16026079 681.44834989 303.91237796 682.22643855 307 683 C308.77455506 683.66489721 310.54881703 684.33099818 312.3127594 685.02355957 C315.6405251 686.31765352 319.00858273 687.49838887 322.375 688.6875 C323.10320953 688.94501038 323.83141907 689.20252075 324.58169556 689.46783447 C369.40280349 705.21289769 415.90293245 713.99636813 463.31640625 716.76635742 C466.22898348 717.01993606 469.11618356 717.51936393 472 718 C472 660.58 472 603.16 472 544 C476.59820204 545.14955051 478.95668675 547.30236956 482.375 550.375 C487.37425463 554.76838514 492.44335069 559.02623598 497.6875 563.125 C498.27515137 563.58567871 498.86280273 564.04635742 499.46826172 564.52099609 C501.93165172 566.43936916 504.40073701 568.26715801 507 570 C507.36914349 572.55746651 507.36914349 572.55746651 507.36076355 575.85916138 C507.36488754 577.10720551 507.36901154 578.35524963 507.3732605 579.64111328 C507.36264236 581.03174042 507.35173792 582.4223654 507.34057617 583.81298828 C507.33973033 585.27139264 507.34020421 586.72979829 507.34190369 588.1882019 C507.34276674 592.15501029 507.32509115 596.1215482 507.30418181 600.08829355 C507.28546642 604.2309575 507.28366864 608.3736272 507.28010559 612.5163269 C507.27076997 620.36449865 507.24613576 628.21254548 507.21605712 636.06066215 C507.1825602 644.99401551 507.16603897 653.92737474 507.15097082 662.86077523 C507.11958746 681.24058772 507.0667976 699.62028383 507 718 C510.68550806 717.68123561 514.37095717 717.36179447 518.05639648 717.04223633 C519.09391808 716.95250801 520.13143967 716.86277969 521.20040131 716.77033234 C567.98797071 712.71055378 613.10020332 703.66208529 657.56640625 688.48046875 C658.32606689 688.23103516 659.08572754 687.98160156 659.8684082 687.72460938 C661.81587466 687.06259123 663.73097 686.30724055 665.640625 685.54296875 C670.242726 684.7991408 672.58332917 686.55364126 676.1875 689.125 C677.57511 690.05464518 678.96452708 690.98159712 680.35546875 691.90625 C681.09458496 692.40511719 681.83370117 692.90398438 682.59521484 693.41796875 C686.97458756 696.29901801 691.49366266 698.94877183 696 701.625 C697.7293101 702.65861423 699.45848903 703.69244798 701.1875 704.7265625 C702.45820493 705.48459029 703.72898565 706.24249114 705 707 C676.50827487 739.40132586 583.33718036 746.6151651 544 751 C542.9672998 751.12004395 541.93459961 751.24008789 540.87060547 751.36376953 C503.48225397 755.53460641 464.32178105 754.57966721 427 750 C426.28706787 749.91278687 425.57413574 749.82557373 424.83959961 749.73571777 C332.16049859 738.24755358 244.72220707 703.10163016 164 643 C163.46342773 642.58959473 162.92685547 642.17918945 162.37402344 641.75634766 C149.25119215 631.69298914 136.80817555 620.86346919 124.71044922 609.59277344 C123.45613099 608.42475001 122.19963255 607.25906672 120.94189453 606.09472656 C118.68612916 604.00522773 116.4362051 601.90959337 114.1875 599.8125 C113.48189941 599.15918701 112.77629883 598.50587402 112.04931641 597.83276367 C107.97614387 594.016748 104.19485597 590.07558125 100.58520508 585.81713867 C98.96365223 583.95833413 97.26183997 582.22556146 95.5 580.5 C91.78786547 576.83714159 88.3861235 572.96375633 85 569 C84.19820312 568.07574219 83.39640625 567.15148437 82.5703125 566.19921875 C74.99921592 557.41943269 67.95196776 548.27434527 61 539 C60.52030762 538.36304199 60.04061523 537.72608398 59.54638672 537.06982422 C5.84661348 465.61432911 -28.08906202 381.23036122 -41 293 C-41.16580566 291.87142578 -41.33161133 290.74285156 -41.50244141 289.58007812 C-53.53083983 205.18749115 -43.73708425 117.44357848 0 0 Z M56 466 C60.14578988 474.8577317 65.01712278 482.97660264 70.5 491.0625 C71.30045721 492.25178937 72.10091292 493.44107975 72.90136719 494.63037109 C85.68596185 513.5555067 99.3562434 531.8099646 114.83984375 548.62890625 C116.00886534 549.91208185 117.17093543 551.20252906 118.29052734 552.52905273 C124.07805427 559.34227536 130.42403883 565.61011308 136.74121094 571.92651367 C138.73663414 573.92411952 140.72391056 575.92959353 142.7109375 577.93554688 C149.12089647 584.37301254 155.53691426 590.55022645 162.6965332 596.15795898 C165.05615731 598.04490799 167.24590299 600.04660105 169.4375 602.125 C177.4235161 609.3977515 186.29929611 615.62066879 195 622 C195.66112793 622.48678223 196.32225586 622.97356445 197.00341797 623.47509766 C210.12730577 633.11300823 223.82935871 641.79180984 237.8125 650.125 C239.2365918 650.97831909 239.2365918 650.97831909 240.68945312 651.84887695 C241.58212891 652.37570068 242.47480469 652.90252441 243.39453125 653.4453125 C244.18706299 653.91469238 244.97959473 654.38407227 245.79614258 654.86767578 C247.87973923 655.93821099 249.71149548 656.54510547 252 657 C249.734937 647.71061866 247.32792501 638.48377619 244.70336914 629.2890625 C232.90928414 587.96870983 223.62038311 546.08157393 215 504 C207.89774209 502.12081792 200.78223268 500.51364667 193.578125 499.08203125 C169.562924 494.2908882 145.74725075 488.90207725 122 482.9375 C121.31136494 482.76459568 120.62272987 482.59169136 119.91322708 482.41354752 C100.26797077 477.4753608 80.66791086 472.39271082 61.26245117 466.57226562 C58.90421662 465.87739112 58.90421662 465.87739112 56 466 Z " fill="#43403F" transform="translate(46,353)"/>
</svg>
