<?xml version="1.0" encoding="UTF-8"?>
<svg version="1.1" xmlns="http://www.w3.org/2000/svg" width="1024" height="1024">
<path d="M0 0 C1.81827813 -0.00067645 3.63655616 -0.00164929 5.45483398 -0.00289917 C9.23649978 -0.00436013 13.0181417 -0.00227382 16.79980469 0.00244141 C21.5966736 0.00813768 26.39348652 0.00484999 31.19035339 -0.00113106 C34.93632412 -0.00478036 38.68228202 -0.00357824 42.42825317 -0.00100327 C44.19491584 -0.00034602 45.96157976 -0.00111924 47.72824097 -0.00348282 C56.52849938 -0.01267875 65.30165958 0.08597337 74.08984375 0.57861328 C74.80080704 0.61733488 75.51177032 0.65605648 76.24427795 0.69595146 C79.22618913 0.88345707 81.71209422 1.18267724 84.5625 2.1328125 C87.91529172 2.4403297 91.26869297 2.6417833 94.62890625 2.8515625 C97.5625 3.1328125 97.5625 3.1328125 99.5625 4.1328125 C101.22522703 4.33503606 102.89304185 4.49692637 104.5625 4.6328125 C109.34027778 5.02170139 109.34027778 5.02170139 111.5625 6.1328125 C112.89158989 6.31327083 114.22632043 6.45339679 115.5625 6.5703125 C129.41693038 7.98724288 129.41693038 7.98724288 131.5625 10.1328125 C132.89031878 10.33885335 134.22545895 10.4991084 135.5625 10.6328125 C139.45138889 11.02170139 139.45138889 11.02170139 140.5625 12.1328125 C142.295 12.3803125 142.295 12.3803125 144.0625 12.6328125 C147.5625 13.1328125 147.5625 13.1328125 148.5625 14.1328125 C149.573125 14.2565625 150.58375 14.3803125 151.625 14.5078125 C155.1303395 15.0642156 158.00216443 16.01107796 161.28125 17.31640625 C163.90749209 18.25627713 166.53824476 18.91735038 169.25 19.5703125 C178.05285245 21.70129452 186.45685131 24.06366806 194.5625 28.1328125 C196.11153025 28.63478957 197.67462215 29.09591405 199.25 29.5078125 C203.95991728 30.85752014 208.23189772 32.73241592 212.65625 34.8203125 C215.68890781 36.1898999 218.75349535 37.35618942 221.875 38.5078125 C227.96091834 40.79727702 233.62662708 43.60499228 239.40234375 46.56640625 C241.90109585 47.80497188 244.31810978 48.88225299 246.9375 49.8203125 C251.01918963 51.29816564 254.71038993 53.13796979 258.5625 55.1328125 C258.5625 55.7928125 258.5625 56.4528125 258.5625 57.1328125 C259.13226562 57.25527344 259.70203125 57.37773438 260.2890625 57.50390625 C270.49197077 60.32636026 281.87590673 67.55470188 290.375 73.8203125 C292.78543848 75.56906199 294.96166942 76.93576683 297.5625 78.3203125 C302.06684362 80.76440851 306.34601713 83.50632881 310.625 86.3203125 C311.30498047 86.76076904 311.98496094 87.20122559 312.68554688 87.6550293 C314.34846235 88.76017167 315.9608823 89.94056744 317.5625 91.1328125 C317.5625 91.7928125 317.5625 92.4528125 317.5625 93.1328125 C318.25472656 93.36226563 318.94695313 93.59171875 319.66015625 93.828125 C323.18499207 95.4126407 326.00820731 97.60738 329 100.0078125 C330.10133672 100.88213635 331.20419322 101.7545494 332.30859375 102.625 C333.11079346 103.25873535 333.11079346 103.25873535 333.92919922 103.90527344 C335.5647194 105.13448054 337.24481182 106.23370519 338.97265625 107.328125 C339.82730469 107.92367187 340.68195312 108.51921875 341.5625 109.1328125 C341.5625 109.7928125 341.5625 110.4528125 341.5625 111.1328125 C342.243125 111.3390625 342.92375 111.5453125 343.625 111.7578125 C347.47889375 113.56176277 350.64037764 116.033847 353.5625 119.1328125 C353.5625 119.7928125 353.5625 120.4528125 353.5625 121.1328125 C354.39394531 121.48666016 354.39394531 121.48666016 355.2421875 121.84765625 C358.12697242 123.445458 360.27422032 125.45132259 362.6875 127.6953125 C365.87757509 130.77000436 365.87757509 130.77000436 369.5625 133.1328125 C369.5625 133.7928125 369.5625 134.4528125 369.5625 135.1328125 C370.2225 135.1328125 370.8825 135.1328125 371.5625 135.1328125 C371.5625 135.7928125 371.5625 136.4528125 371.5625 137.1328125 C372.13323242 137.37902344 372.70396484 137.62523437 373.29199219 137.87890625 C375.9409281 139.34180247 377.74798546 141.05926569 379.890625 143.1953125 C381.08945313 144.39027344 381.08945313 144.39027344 382.3125 145.609375 C383.1375 146.44210938 383.9625 147.27484375 384.8125 148.1328125 C385.65296875 148.96554688 386.4934375 149.79828125 387.359375 150.65625 C388.1534375 151.45289063 388.9475 152.24953125 389.765625 153.0703125 C390.49426758 153.80121094 391.22291016 154.53210938 391.97363281 155.28515625 C393.5625 157.1328125 393.5625 157.1328125 393.5625 159.1328125 C394.2225 159.1328125 394.8825 159.1328125 395.5625 159.1328125 C395.5625 159.7928125 395.5625 160.4528125 395.5625 161.1328125 C396.2225 161.1328125 396.8825 161.1328125 397.5625 161.1328125 C397.5625 161.7928125 397.5625 162.4528125 397.5625 163.1328125 C398.2225 163.1328125 398.8825 163.1328125 399.5625 163.1328125 C399.5625 163.7928125 399.5625 164.4528125 399.5625 165.1328125 C400.2225 165.1328125 400.8825 165.1328125 401.5625 165.1328125 C403.14783702 166.84614004 404.65791215 168.62970297 406.125 170.4453125 C406.93066406 171.43144531 407.73632812 172.41757813 408.56640625 173.43359375 C410.5625 176.1328125 410.5625 176.1328125 411.5625 179.1328125 C412.2225 179.1328125 412.8825 179.1328125 413.5625 179.1328125 C413.5625 179.7928125 413.5625 180.4528125 413.5625 181.1328125 C414.2225 181.1328125 414.8825 181.1328125 415.5625 181.1328125 C417.0703125 182.8125 417.0703125 182.8125 418.6875 185.0078125 C419.22632813 185.72710937 419.76515625 186.44640625 420.3203125 187.1875 C421.5625 189.1328125 421.5625 189.1328125 421.5625 191.1328125 C422.2225 191.1328125 422.8825 191.1328125 423.5625 191.1328125 C423.5625 191.7928125 423.5625 192.4528125 423.5625 193.1328125 C424.2225 193.1328125 424.8825 193.1328125 425.5625 193.1328125 C429.5625 198.54457721 429.5625 198.54457721 429.5625 201.1328125 C430.2225 201.1328125 430.8825 201.1328125 431.5625 201.1328125 C435.5625 206.54457721 435.5625 206.54457721 435.5625 209.1328125 C436.2225 209.1328125 436.8825 209.1328125 437.5625 209.1328125 C439.01213959 211.03655605 440.37434323 213.00748409 441.6875 215.0078125 C442.41195312 216.09835938 443.13640625 217.18890625 443.8828125 218.3125 C445.5625 221.1328125 445.5625 221.1328125 445.5625 223.1328125 C446.2225 223.1328125 446.8825 223.1328125 447.5625 223.1328125 C447.84222656 223.66648438 448.12195313 224.20015625 448.41015625 224.75 C451.30841233 230.13646949 454.55428941 235.06208186 458.20703125 239.96875 C459.5625 242.1328125 459.5625 242.1328125 459.5625 245.1328125 C460.2225 245.1328125 460.8825 245.1328125 461.5625 245.1328125 C465.5625 251.7578125 465.5625 251.7578125 465.5625 255.1328125 C466.2225 255.1328125 466.8825 255.1328125 467.5625 255.1328125 C467.5625 256.4528125 467.5625 257.7728125 467.5625 259.1328125 C468.2225 259.1328125 468.8825 259.1328125 469.5625 259.1328125 C470.71332685 261.38038034 471.85826858 263.63062998 473 265.8828125 C473.32548828 266.51703125 473.65097656 267.15125 473.98632812 267.8046875 C475.53313665 270.86641158 476.9540078 273.73896871 477.5625 277.1328125 C478.2225 277.1328125 478.8825 277.1328125 479.5625 277.1328125 C479.5625 278.4528125 479.5625 279.7728125 479.5625 281.1328125 C480.2225 281.1328125 480.8825 281.1328125 481.5625 281.1328125 C481.5625 282.4528125 481.5625 283.7728125 481.5625 285.1328125 C482.2225 285.1328125 482.8825 285.1328125 483.5625 285.1328125 C483.954375 286.2465625 484.34625 287.3603125 484.75 288.5078125 C486.34382807 292.81421333 488.39514129 296.79918044 490.57421875 300.8359375 C491.5625 303.1328125 491.5625 303.1328125 491.5625 307.1328125 C492.2225 307.1328125 492.8825 307.1328125 493.5625 307.1328125 C493.86542969 308.00421875 494.16835938 308.875625 494.48046875 309.7734375 C496.94437552 316.77851399 499.53863929 323.67612335 502.44921875 330.51171875 C502.81660156 331.37667969 503.18398438 332.24164063 503.5625 333.1328125 C504.12517578 334.45152344 504.12517578 334.45152344 504.69921875 335.796875 C505.6560483 338.3859432 505.71896429 340.3946875 505.5625 343.1328125 C506.2225 343.1328125 506.8825 343.1328125 507.5625 343.1328125 C507.5625 345.1128125 507.5625 347.0928125 507.5625 349.1328125 C508.2225 349.1328125 508.8825 349.1328125 509.5625 349.1328125 C509.5625 351.1128125 509.5625 353.0928125 509.5625 355.1328125 C510.2225 355.1328125 510.8825 355.1328125 511.5625 355.1328125 C511.83513672 356.40125 511.83513672 356.40125 512.11328125 357.6953125 C513.74575459 365.22084407 513.74575459 365.22084407 516.1875 372.5078125 C517.54985653 376.09947972 518.09765883 379.33660964 518.5625 383.1328125 C518.8925 383.4628125 519.2225 383.7928125 519.5625 384.1328125 C519.89583333 386.46614583 520.22916667 388.79947917 520.5625 391.1328125 C520.8925 391.4628125 521.2225 391.7928125 521.5625 392.1328125 C522.05957517 394.73497108 522.51210124 397.33131241 522.9375 399.9453125 C523.82365181 405.22084019 524.80943759 410.39582326 526.1875 415.5703125 C527.3900694 420.11126465 528.03325106 424.48814951 528.3515625 429.171875 C528.45535608 431.20934717 528.45535608 431.20934717 529.5625 433.1328125 C529.76790348 435.27528488 529.92839255 437.42219852 530.0625 439.5703125 C530.27880302 443.02729828 530.46598904 445.84327961 531.5625 449.1328125 C532.80038039 461.31124098 532.71045155 473.5592271 532.6953125 485.78515625 C532.69598854 487.73938509 532.69696106 489.69361385 532.69821167 491.64784241 C532.69967487 495.71795462 532.69757911 499.78804469 532.69287109 503.8581543 C532.68717851 509.02610256 532.69045872 514.1939988 532.69644356 519.36194515 C532.70008994 523.39014565 532.69889198 527.41833421 532.69631577 531.44653511 C532.69565752 533.34996103 532.69643543 535.2533881 532.69879532 537.15681267 C532.70771022 546.36500434 532.63371697 555.54871681 532.11669922 564.74438477 C532.07797762 565.45027457 532.03925602 566.15616438 531.99936104 566.88344479 C531.81121812 569.84319894 531.50574712 572.30307115 530.5625 575.1328125 C530.25709331 578.22505526 530.05417689 581.31792969 529.84375 584.41796875 C529.5625 587.1328125 529.5625 587.1328125 528.5625 589.1328125 C528.40595538 590.58809766 528.28674452 592.04750033 528.1875 593.5078125 C527.8371762 597.35042668 527.18395377 600.9064906 526.1875 604.6328125 C524.04677005 612.68954984 522.85136427 620.90601929 521.5625 629.1328125 C520.9025 629.1328125 520.2425 629.1328125 519.5625 629.1328125 C519.6553125 630.8653125 519.6553125 630.8653125 519.75 632.6328125 C519.75 636.42197729 518.89444132 639.28216483 517.421875 642.796875 C515.95743446 646.77749065 515.17141063 650.91945385 514.2578125 655.0546875 C513.48776009 658.46368357 512.57346879 661.7888388 511.5625 665.1328125 C510.9025 665.1328125 510.2425 665.1328125 509.5625 665.1328125 C509.60375 665.9990625 509.645 666.8653125 509.6875 667.7578125 C509.55792279 671.25639718 508.80230344 673.87832847 507.5625 677.1328125 C506.9025 677.1328125 506.2425 677.1328125 505.5625 677.1328125 C505.5625 679.1128125 505.5625 681.0928125 505.5625 683.1328125 C504.9025 683.1328125 504.2425 683.1328125 503.5625 683.1328125 C503.6553125 684.1846875 503.6553125 684.1846875 503.75 685.2578125 C503.51881259 688.80268613 502.19364877 691.00100686 500.5625 694.1328125 C499.86342586 696.86853835 499.86342586 696.86853835 499.5625 699.1328125 C498.9025 699.1328125 498.2425 699.1328125 497.5625 699.1328125 C497.44390625 699.83019531 497.3253125 700.52757812 497.203125 701.24609375 C495.35516598 709.57317739 491.57292061 717.5151561 487.578125 725.01171875 C486.60152349 727.05131345 486.02301141 728.92536109 485.5625 731.1328125 C484.9025 731.1328125 484.2425 731.1328125 483.5625 731.1328125 C483.5625 732.4528125 483.5625 733.7728125 483.5625 735.1328125 C482.9025 735.1328125 482.2425 735.1328125 481.5625 735.1328125 C481.5625 736.4528125 481.5625 737.7728125 481.5625 739.1328125 C480.9025 739.1328125 480.2425 739.1328125 479.5625 739.1328125 C479.5625 740.4528125 479.5625 741.7728125 479.5625 743.1328125 C478.9025 743.1328125 478.2425 743.1328125 477.5625 743.1328125 C477.5625 744.4528125 477.5625 745.7728125 477.5625 747.1328125 C476.9025 747.1328125 476.2425 747.1328125 475.5625 747.1328125 C475.47097656 747.64328125 475.37945313 748.15375 475.28515625 748.6796875 C474.27229202 752.11795093 472.63029568 755.20615715 471 758.3828125 C470.67064453 759.0325 470.34128906 759.6821875 470.00195312 760.3515625 C469.19242435 761.94715544 468.37794958 763.54023733 467.5625 765.1328125 C466.9025 765.1328125 466.2425 765.1328125 465.5625 765.1328125 C465.459375 765.6690625 465.35625 766.2053125 465.25 766.7578125 C464.38157303 769.75783294 463.00629704 772.370766 461.5625 775.1328125 C460.9025 775.1328125 460.2425 775.1328125 459.5625 775.1328125 C459.459375 775.6690625 459.35625 776.2053125 459.25 776.7578125 C458.38157303 779.75783294 457.00629704 782.370766 455.5625 785.1328125 C454.9025 785.1328125 454.2425 785.1328125 453.5625 785.1328125 C452.9025 787.1128125 452.2425 789.0928125 451.5625 791.1328125 C450.9025 791.1328125 450.2425 791.1328125 449.5625 791.1328125 C448.9025 793.1128125 448.2425 795.0928125 447.5625 797.1328125 C446.9025 797.1328125 446.2425 797.1328125 445.5625 797.1328125 C444.9025 799.1128125 444.2425 801.0928125 443.5625 803.1328125 C442.9025 803.1328125 442.2425 803.1328125 441.5625 803.1328125 C441.27375 803.8959375 440.985 804.6590625 440.6875 805.4453125 C439.5625 808.1328125 439.5625 808.1328125 437.5625 811.1328125 C436.9025 811.1328125 436.2425 811.1328125 435.5625 811.1328125 C435.27375 811.8959375 434.985 812.6590625 434.6875 813.4453125 C433.5625 816.1328125 433.5625 816.1328125 431.5625 819.1328125 C430.9025 819.1328125 430.2425 819.1328125 429.5625 819.1328125 C429.27375 819.8959375 428.985 820.6590625 428.6875 821.4453125 C427.5625 824.1328125 427.5625 824.1328125 425.5625 827.1328125 C424.9025 827.1328125 424.2425 827.1328125 423.5625 827.1328125 C423.315 827.6690625 423.0675 828.2053125 422.8125 828.7578125 C421.25597463 831.7152107 419.52814327 834.43005301 417.5625 837.1328125 C416.9025 837.1328125 416.2425 837.1328125 415.5625 837.1328125 C415.5625 837.7928125 415.5625 838.4528125 415.5625 839.1328125 C414.9025 839.1328125 414.2425 839.1328125 413.5625 839.1328125 C413.315 839.68453125 413.0675 840.23625 412.8125 840.8046875 C411.32015526 843.58417957 409.52577477 845.9142832 407.5625 848.3828125 C406.510625 849.72085937 406.510625 849.72085937 405.4375 851.0859375 C404.81875 851.76140625 404.2 852.436875 403.5625 853.1328125 C402.9025 853.1328125 402.2425 853.1328125 401.5625 853.1328125 C401.5625 853.7928125 401.5625 854.4528125 401.5625 855.1328125 C400.9025 855.1328125 400.2425 855.1328125 399.5625 855.1328125 C399.5625 855.7928125 399.5625 856.4528125 399.5625 857.1328125 C398.9025 857.1328125 398.2425 857.1328125 397.5625 857.1328125 C397.34335937 857.67647461 397.12421875 858.22013672 396.8984375 858.78027344 C395.12145085 861.90948457 392.72145025 864.25966649 390.1875 866.7734375 C389.66236816 867.30048279 389.13723633 867.82752808 388.59619141 868.37054443 C387.48911117 869.47898178 386.3795167 870.58491296 385.26757812 871.68847656 C383.56143025 873.38387551 381.86625953 875.0897286 380.171875 876.796875 C379.09439108 877.87303808 378.01628733 878.94858101 376.9375 880.0234375 C376.42912598 880.53585999 375.92075195 881.04828247 375.39697266 881.57623291 C371.79244091 885.1328125 371.79244091 885.1328125 369.5625 885.1328125 C369.5625 885.7928125 369.5625 886.4528125 369.5625 887.1328125 C368.9025 887.1328125 368.2425 887.1328125 367.5625 887.1328125 C367.5625 887.7928125 367.5625 888.4528125 367.5625 889.1328125 C366.9025 889.1328125 366.2425 889.1328125 365.5625 889.1328125 C365.5625 889.7928125 365.5625 890.4528125 365.5625 891.1328125 C363.84917246 892.71814952 362.06560953 894.22822465 360.25 895.6953125 C359.26386719 896.50097656 358.27773438 897.30664062 357.26171875 898.13671875 C354.5625 900.1328125 354.5625 900.1328125 351.5625 901.1328125 C351.5625 901.7928125 351.5625 902.4528125 351.5625 903.1328125 C349.34831383 905.0243432 347.12683016 906.80930929 344.8125 908.5703125 C344.17828125 909.06080078 343.5440625 909.55128906 342.890625 910.05664062 C341.66291885 911.00427631 340.43190832 911.94765005 339.19726562 912.88623047 C337.86458534 913.9024589 336.54713304 914.93863225 335.234375 915.98046875 C333.5625 917.1328125 333.5625 917.1328125 331.5625 917.1328125 C331.5625 917.7928125 331.5625 918.4528125 331.5625 919.1328125 C329.92211914 920.48583984 329.92211914 920.48583984 327.53515625 922.09375 C326.62008301 922.71604492 325.70500977 923.33833984 324.76220703 923.97949219 C323.70630371 924.69008789 322.65040039 925.40068359 321.5625 926.1328125 C320.36620687 926.95095382 319.17076807 927.7703454 317.97607422 928.59082031 C314.67617655 930.85582065 311.36863561 933.10933206 308.05786133 935.35839844 C306.68306357 936.29330658 305.30936838 937.22983808 303.93676758 938.16796875 C296.63641261 943.15705131 289.39663197 948.00893693 281.5625 952.1328125 C279.39381161 953.37930162 277.22702278 954.62910376 275.0625 955.8828125 C245.72967653 972.73842277 245.72967653 972.73842277 232.53125 977.36328125 C230.2387164 978.25937077 228.11730186 979.36483198 225.9375 980.5078125 C220.70982144 983.19033071 215.30105522 985.09293907 209.75390625 987.0078125 C207.37729551 987.8455896 205.10247549 988.718391 202.8125 989.7578125 C199.25255819 991.26394173 195.67375988 992.31196754 191.96484375 993.3828125 C189.35025713 994.15133813 189.35025713 994.15133813 186.125 995.6328125 C182.22044546 997.27683546 178.33823233 998.31674655 174.24609375 999.3828125 C171.9770019 1000.01696918 169.86634285 1000.74837735 167.6875 1001.6328125 C161.29370912 1004.1404389 154.45885902 1005.30137187 147.76171875 1006.73046875 C143.84275367 1007.26175322 143.84275367 1007.26175322 140.5625 1009.1328125 C138.5052083 1009.45204742 136.44636479 1009.64442602 134.375 1009.8515625 C132.5457467 1009.95279293 132.5457467 1009.95279293 131.5625 1011.1328125 C130.24938479 1011.41529033 128.92496677 1011.64586351 127.59765625 1011.8515625 C126.79779297 1011.97917969 125.99792969 1012.10679687 125.17382812 1012.23828125 C124.33271484 1012.36847656 123.49160156 1012.49867188 122.625 1012.6328125 C120.96958397 1012.8902367 119.31460947 1013.15052128 117.66015625 1013.4140625 C116.92289307 1013.52814453 116.18562988 1013.64222656 115.42602539 1013.75976562 C113.4803815 1014.06431039 113.4803815 1014.06431039 111.5625 1015.1328125 C108.74306784 1015.44608274 105.92271918 1015.64311214 103.09375 1015.8515625 C100.57175996 1015.98413862 100.57175996 1015.98413862 98.5625 1017.1328125 C96.58690132 1017.33747884 94.60661189 1017.49830309 92.625 1017.6328125 C89.33205062 1017.8568771 86.70086918 1018.08668944 83.5625 1019.1328125 C80.25149619 1019.36028604 76.94688829 1019.52508446 73.63085938 1019.65039062 C70.48364893 1019.80642632 67.769491 1020.05737978 64.79785156 1021.14031982 C61.07425929 1022.28258767 57.66885205 1022.41393458 53.81640625 1022.39160156 C53.06438934 1022.3951062 52.31237244 1022.39861084 51.53756714 1022.40222168 C49.06661585 1022.4109809 46.5959539 1022.40521051 44.125 1022.3984375 C42.39916937 1022.39978582 40.6733391 1022.40172775 38.94750977 1022.40423584 C35.33638887 1022.40717923 31.72536715 1022.40291474 28.11425781 1022.39355469 C23.49416713 1022.38216062 18.87430885 1022.3887243 14.25422668 1022.40069962 C10.69224305 1022.40793942 7.13031417 1022.40562055 3.56832886 1022.40044403 C1.86514254 1022.3991134 0.16195119 1022.40073463 -1.54122925 1022.40540314 C-3.92475485 1022.41050329 -6.30790824 1022.40270942 -8.69140625 1022.39160156 C-9.38976593 1022.39565002 -10.08812561 1022.39969849 -10.80764771 1022.40386963 C-15.07495375 1022.36717684 -18.44702203 1021.58704289 -22.4375 1020.1328125 C-25.18754172 1019.87103228 -27.87123705 1019.67437175 -30.625 1019.5703125 C-38.0777027 1019.25274493 -38.0777027 1019.25274493 -41.4375 1018.1328125 C-44.52974276 1017.82740581 -47.62261719 1017.62448939 -50.72265625 1017.4140625 C-53.4375 1017.1328125 -53.4375 1017.1328125 -55.4375 1016.1328125 C-57.10022703 1015.93058894 -58.76804185 1015.76869863 -60.4375 1015.6328125 C-65.21527778 1015.24392361 -65.21527778 1015.24392361 -67.4375 1014.1328125 C-68.76658989 1013.95235417 -70.10132043 1013.81222821 -71.4375 1013.6953125 C-85.29193038 1012.27838212 -85.29193038 1012.27838212 -87.4375 1010.1328125 C-88.76531878 1009.92677165 -90.10045895 1009.7665166 -91.4375 1009.6328125 C-95.32638889 1009.24392361 -95.32638889 1009.24392361 -96.4375 1008.1328125 C-97.4275 1008.0090625 -98.4175 1007.8853125 -99.4375 1007.7578125 C-103.13819381 1007.27739789 -106.42182693 1006.17922845 -109.93359375 1004.94921875 C-112.66186187 1004.05965863 -115.39798763 1003.36788268 -118.1875 1002.6953125 C-125.93231906 1000.80609099 -133.83066741 998.84077618 -141.125 995.5703125 C-143.90924844 994.36205374 -146.53279315 993.47330489 -149.4375 992.6328125 C-152.86102994 991.6385538 -156.06885498 990.49356023 -159.3203125 989.015625 C-163.50901787 987.26904306 -167.83936887 985.87965814 -172.1328125 984.4140625 C-175.16798819 983.23730408 -177.6843646 981.84587453 -180.4375 980.1328125 C-182.27930248 979.46306614 -184.12133694 978.79394702 -185.96484375 978.12890625 C-190.95556185 976.11842739 -195.70212642 973.56298735 -200.49169922 971.11962891 C-202.46948084 970.11659336 -204.45400608 969.12835935 -206.44140625 968.14453125 C-217.99579735 962.42370877 -229.42639027 956.64164773 -240.1953125 949.515625 C-242.46957424 947.99499318 -242.46957424 947.99499318 -245.4375 947.1328125 C-245.4375 946.4728125 -245.4375 945.8128125 -245.4375 945.1328125 C-245.97705322 945.04378662 -246.51660645 944.95476074 -247.07250977 944.86303711 C-250.21332911 943.89326415 -252.54247434 942.27310837 -255.27734375 940.44921875 C-255.83633865 940.07785797 -256.39533356 939.70649719 -256.9712677 939.32388306 C-258.77692843 938.12081884 -260.57624572 936.90867391 -262.375 935.6953125 C-263.29097961 935.08147202 -263.29097961 935.08147202 -264.22546387 934.45523071 C-272.02057478 929.23044059 -279.69320771 923.91203715 -287.02734375 918.05078125 C-289.21404645 916.31063372 -291.44337183 914.70818086 -293.75 913.1328125 C-294.636875 912.4728125 -295.52375 911.8128125 -296.4375 911.1328125 C-296.4375 910.4728125 -296.4375 909.8128125 -296.4375 909.1328125 C-297.159375 908.8853125 -297.88125 908.6378125 -298.625 908.3828125 C-301.71356582 907.01011658 -303.94761418 905.40927954 -306.4375 903.1328125 C-306.4375 902.4728125 -306.4375 901.8128125 -306.4375 901.1328125 C-306.99179687 900.89691406 -307.54609375 900.66101563 -308.1171875 900.41796875 C-311.00197242 898.820167 -313.14922032 896.81430241 -315.5625 894.5703125 C-318.75257509 891.49562064 -318.75257509 891.49562064 -322.4375 889.1328125 C-322.4375 888.4728125 -322.4375 887.8128125 -322.4375 887.1328125 C-323.0975 887.1328125 -323.7575 887.1328125 -324.4375 887.1328125 C-324.4375 886.4728125 -324.4375 885.8128125 -324.4375 885.1328125 C-325.26652832 884.79056641 -325.26652832 884.79056641 -326.11230469 884.44140625 C-329.10996403 882.75435732 -331.2051506 880.62468732 -333.640625 878.1953125 C-334.1232782 877.71457275 -334.6059314 877.23383301 -335.10321045 876.73852539 C-336.11749064 875.72560157 -337.12926804 874.71016612 -338.13867188 873.69238281 C-339.68921972 872.13108085 -341.25020503 870.58078753 -342.8125 869.03125 C-343.79751734 868.04491189 -344.78191453 867.057954 -345.765625 866.0703125 C-346.6618457 865.17183594 -347.55806641 864.27335938 -348.48144531 863.34765625 C-350.4375 861.1328125 -350.4375 861.1328125 -350.4375 859.1328125 C-351.0975 859.1328125 -351.7575 859.1328125 -352.4375 859.1328125 C-352.4375 858.4728125 -352.4375 857.8128125 -352.4375 857.1328125 C-353.0975 857.1328125 -353.7575 857.1328125 -354.4375 857.1328125 C-354.4375 856.4728125 -354.4375 855.8128125 -354.4375 855.1328125 C-355.0975 855.1328125 -355.7575 855.1328125 -356.4375 855.1328125 C-357.98828125 853.59375 -357.98828125 853.59375 -359.75 851.5078125 C-360.36617188 850.78078125 -360.98234375 850.05375 -361.6171875 849.3046875 C-362.21789062 848.58796875 -362.81859375 847.87125 -363.4375 847.1328125 C-363.95570313 846.53984375 -364.47390625 845.946875 -365.0078125 845.3359375 C-368.4375 841.37709821 -368.4375 841.37709821 -368.4375 839.1328125 C-369.0975 839.1328125 -369.7575 839.1328125 -370.4375 839.1328125 C-371.9453125 837.453125 -371.9453125 837.453125 -373.5625 835.2578125 C-374.10132813 834.53851562 -374.64015625 833.81921875 -375.1953125 833.078125 C-376.4375 831.1328125 -376.4375 831.1328125 -376.4375 829.1328125 C-377.0975 829.1328125 -377.7575 829.1328125 -378.4375 829.1328125 C-378.4375 828.4728125 -378.4375 827.8128125 -378.4375 827.1328125 C-379.0975 827.1328125 -379.7575 827.1328125 -380.4375 827.1328125 C-384.4375 821.72104779 -384.4375 821.72104779 -384.4375 819.1328125 C-385.0975 819.1328125 -385.7575 819.1328125 -386.4375 819.1328125 C-390.4375 813.72104779 -390.4375 813.72104779 -390.4375 811.1328125 C-391.0975 811.1328125 -391.7575 811.1328125 -392.4375 811.1328125 C-393.88713959 809.22906895 -395.24934323 807.25814091 -396.5625 805.2578125 C-397.28695312 804.16726563 -398.01140625 803.07671875 -398.7578125 801.953125 C-400.4375 799.1328125 -400.4375 799.1328125 -400.4375 797.1328125 C-401.0975 797.1328125 -401.7575 797.1328125 -402.4375 797.1328125 C-403.4275 794.1628125 -403.4275 794.1628125 -404.4375 791.1328125 C-405.0975 791.1328125 -405.7575 791.1328125 -406.4375 791.1328125 C-406.76363281 790.52953125 -407.08976562 789.92625 -407.42578125 789.3046875 C-407.86277344 788.50546875 -408.29976563 787.70625 -408.75 786.8828125 C-409.17925781 786.09390625 -409.60851562 785.305 -410.05078125 784.4921875 C-411.38169187 782.10419731 -411.38169187 782.10419731 -413.10546875 780.0234375 C-414.4375 778.1328125 -414.4375 778.1328125 -414.4375 775.1328125 C-415.0975 775.1328125 -415.7575 775.1328125 -416.4375 775.1328125 C-420.4375 768.5078125 -420.4375 768.5078125 -420.4375 765.1328125 C-421.0975 765.1328125 -421.7575 765.1328125 -422.4375 765.1328125 C-422.4375 763.8128125 -422.4375 762.4928125 -422.4375 761.1328125 C-423.0975 761.1328125 -423.7575 761.1328125 -424.4375 761.1328125 C-425.58832685 758.88524466 -426.73326858 756.63499502 -427.875 754.3828125 C-428.20048828 753.74859375 -428.52597656 753.114375 -428.86132812 752.4609375 C-430.40813665 749.39921342 -431.8290078 746.52665629 -432.4375 743.1328125 C-433.0975 743.1328125 -433.7575 743.1328125 -434.4375 743.1328125 C-434.4375 741.8128125 -434.4375 740.4928125 -434.4375 739.1328125 C-435.0975 739.1328125 -435.7575 739.1328125 -436.4375 739.1328125 C-436.4375 737.8128125 -436.4375 736.4928125 -436.4375 735.1328125 C-437.0975 735.1328125 -437.7575 735.1328125 -438.4375 735.1328125 C-438.829375 734.0190625 -439.22125 732.9053125 -439.625 731.7578125 C-441.21882807 727.45141167 -443.27014129 723.46644456 -445.44921875 719.4296875 C-446.4375 717.1328125 -446.4375 717.1328125 -446.4375 713.1328125 C-447.0975 713.1328125 -447.7575 713.1328125 -448.4375 713.1328125 C-448.74042969 712.26140625 -449.04335938 711.39 -449.35546875 710.4921875 C-451.81937552 703.48711101 -454.41363929 696.58950165 -457.32421875 689.75390625 C-457.69160156 688.88894531 -458.05898438 688.02398438 -458.4375 687.1328125 C-459.00017578 685.81410156 -459.00017578 685.81410156 -459.57421875 684.46875 C-460.5310483 681.8796818 -460.59396429 679.8709375 -460.4375 677.1328125 C-461.0975 677.1328125 -461.7575 677.1328125 -462.4375 677.1328125 C-462.4375 675.1528125 -462.4375 673.1728125 -462.4375 671.1328125 C-463.0975 671.1328125 -463.7575 671.1328125 -464.4375 671.1328125 C-464.61925781 670.359375 -464.80101562 669.5859375 -464.98828125 668.7890625 C-466.61377567 661.91456406 -466.61377567 661.91456406 -468.9375 655.2578125 C-470.91522413 650.35513848 -471.76948007 645.18089202 -472.7890625 640.01171875 C-473.14150938 637.25065288 -473.14150938 637.25065288 -474.4375 636.1328125 C-474.77083333 633.79947917 -475.10416667 631.46614583 -475.4375 629.1328125 C-475.7675 628.8028125 -476.0975 628.4728125 -476.4375 628.1328125 C-476.75673492 626.0755208 -476.94911352 624.01667729 -477.15625 621.9453125 C-477.25748043 620.1160592 -477.25748043 620.1160592 -478.4375 619.1328125 C-478.72073362 617.74648775 -478.95097002 616.34921079 -479.15625 614.94921875 C-479.34767578 613.68174805 -479.34767578 613.68174805 -479.54296875 612.38867188 C-479.67316406 611.49986328 -479.80335938 610.61105469 -479.9375 609.6953125 C-480.19484082 607.94615929 -480.45511952 606.19743504 -480.71875 604.44921875 C-480.83283203 603.67006104 -480.94691406 602.89090332 -481.06445312 602.08813477 C-481.35897195 600.06347701 -481.35897195 600.06347701 -482.4375 598.1328125 C-483.86946974 590.63734589 -484.69751185 583.10609923 -485.19140625 575.49609375 C-485.29899804 573.11634088 -485.29899804 573.11634088 -486.4375 571.1328125 C-486.67661139 568.50140506 -486.85819838 565.89335972 -486.99169922 563.25610352 C-487.03380964 562.4544127 -487.07592007 561.65272188 -487.11930656 560.8267374 C-487.56510046 551.60556045 -487.58238716 542.3900564 -487.5703125 533.16015625 C-487.57098902 531.29846687 -487.57196192 529.43677758 -487.57321167 527.5750885 C-487.57467192 523.70524236 -487.57258843 519.83541956 -487.56787109 515.96557617 C-487.56217083 511.05551516 -487.56546549 506.14550881 -487.57144356 501.23544979 C-487.57509137 497.40112409 -487.57389147 493.56681093 -487.57131577 489.73248482 C-487.57065832 487.92395585 -487.57143247 486.11542566 -487.57379532 484.30689812 C-487.58290089 475.38517493 -487.49157258 466.48983662 -486.99169922 457.58032227 C-486.95297762 456.8708718 -486.91425602 456.16142134 -486.87436104 455.43047237 C-486.68666594 452.4551742 -486.38557815 449.97704696 -485.4375 447.1328125 C-485.13209331 444.04056974 -484.92917689 440.94769531 -484.71875 437.84765625 C-484.4375 435.1328125 -484.4375 435.1328125 -483.4375 433.1328125 C-483.23420732 431.30317839 -483.07277804 429.46872882 -482.9375 427.6328125 C-482.54861111 422.35503472 -482.54861111 422.35503472 -481.4375 420.1328125 C-481.25704167 418.80372261 -481.11691571 417.46899207 -481 416.1328125 C-479.58306962 402.27838212 -479.58306962 402.27838212 -477.4375 400.1328125 C-476.96285443 397.95307075 -476.53431976 395.76326025 -476.125 393.5703125 C-473.99143213 382.51516091 -471.53347876 371.63988845 -467.4375 361.1328125 C-466.9210069 359.28317229 -466.42214865 357.42855084 -465.9375 355.5703125 C-464.7885805 351.21399272 -463.24120243 347.26629723 -461.4375 343.1328125 C-460.623066 340.60442038 -459.87282173 338.06280322 -459.1328125 335.51171875 C-458.30884274 332.6926312 -457.38810585 329.91150651 -456.4375 327.1328125 C-455.7775 327.1328125 -455.1175 327.1328125 -454.4375 327.1328125 C-454.47875 326.4109375 -454.52 325.6890625 -454.5625 324.9453125 C-454.42828695 321.92551881 -453.68579381 319.86345521 -452.4375 317.1328125 C-451.7775 317.1328125 -451.1175 317.1328125 -450.4375 317.1328125 C-450.31632812 316.25625 -450.19515625 315.3796875 -450.0703125 314.4765625 C-448.23628637 304.78565901 -442.84591498 295.7356053 -438.40087891 287.02734375 C-436.68611491 283.65517735 -435.00147864 280.26794506 -433.3125 276.8828125 C-432.6433577 275.54420658 -431.97409026 274.20566319 -431.3046875 272.8671875 C-430.98854492 272.23490234 -430.67240234 271.60261719 -430.34667969 270.95117188 C-428.37695312 267.01171875 -426.40722656 263.07226562 -424.4375 259.1328125 C-423.7775 259.1328125 -423.1175 259.1328125 -422.4375 259.1328125 C-422.32535156 258.58109375 -422.21320313 258.029375 -422.09765625 257.4609375 C-421.32389227 254.73216039 -420.16932306 252.40508307 -418.875 249.8828125 C-418.41996094 248.99078125 -417.96492188 248.09875 -417.49609375 247.1796875 C-416.97208984 246.16648438 -416.97208984 246.16648438 -416.4375 245.1328125 C-415.7775 245.1328125 -415.1175 245.1328125 -414.4375 245.1328125 C-413.4475 242.1628125 -413.4475 242.1628125 -412.4375 239.1328125 C-411.7775 239.1328125 -411.1175 239.1328125 -410.4375 239.1328125 C-410.33171631 238.57110352 -410.22593262 238.00939453 -410.11694336 237.43066406 C-408.7473836 232.79886513 -405.62578862 228.89310785 -403 224.8828125 C-402.40123047 223.94695312 -401.80246094 223.01109375 -401.18554688 222.046875 C-400.60998047 221.16257813 -400.03441406 220.27828125 -399.44140625 219.3671875 C-398.91361572 218.55475586 -398.3858252 217.74232422 -397.84204102 216.90527344 C-397.37854248 216.32036133 -396.91504395 215.73544922 -396.4375 215.1328125 C-395.7775 215.1328125 -395.1175 215.1328125 -394.4375 215.1328125 C-394.169375 214.40707031 -393.90125 213.68132812 -393.625 212.93359375 C-392.45079619 210.16417226 -391.0980676 207.82361816 -389.4375 205.3203125 C-388.921875 204.53011719 -388.40625 203.73992187 -387.875 202.92578125 C-387.400625 202.33410156 -386.92625 201.74242187 -386.4375 201.1328125 C-385.7775 201.1328125 -385.1175 201.1328125 -384.4375 201.1328125 C-384.06625 200.3284375 -384.06625 200.3284375 -383.6875 199.5078125 C-382.13097463 196.5504143 -380.40314327 193.83557199 -378.4375 191.1328125 C-377.7775 191.1328125 -377.1175 191.1328125 -376.4375 191.1328125 C-376.06625 190.3284375 -376.06625 190.3284375 -375.6875 189.5078125 C-374.13097463 186.5504143 -372.40314327 183.83557199 -370.4375 181.1328125 C-369.7775 181.1328125 -369.1175 181.1328125 -368.4375 181.1328125 C-368.4375 180.4728125 -368.4375 179.8128125 -368.4375 179.1328125 C-367.7775 179.1328125 -367.1175 179.1328125 -366.4375 179.1328125 C-366.20160156 178.57851562 -365.96570313 178.02421875 -365.72265625 177.453125 C-364.1248545 174.56834008 -362.11898991 172.42109218 -359.875 170.0078125 C-356.80030814 166.81773741 -356.80030814 166.81773741 -354.4375 163.1328125 C-353.7775 163.1328125 -353.1175 163.1328125 -352.4375 163.1328125 C-352.4375 162.4728125 -352.4375 161.8128125 -352.4375 161.1328125 C-351.7775 161.1328125 -351.1175 161.1328125 -350.4375 161.1328125 C-350.4375 160.4728125 -350.4375 159.8128125 -350.4375 159.1328125 C-349.7775 159.1328125 -349.1175 159.1328125 -348.4375 159.1328125 C-348.4375 158.4728125 -348.4375 157.8128125 -348.4375 157.1328125 C-347.7775 157.1328125 -347.1175 157.1328125 -346.4375 157.1328125 C-346.04111328 156.24964355 -346.04111328 156.24964355 -345.63671875 155.34863281 C-344.39381056 153.05208666 -343.08743519 151.52448084 -341.25 149.6796875 C-340.63382813 149.0609375 -340.01765625 148.4421875 -339.3828125 147.8046875 C-338.74085938 147.17046875 -338.09890625 146.53625 -337.4375 145.8828125 C-336.79554688 145.233125 -336.15359375 144.5834375 -335.4921875 143.9140625 C-334.87601563 143.30046875 -334.25984375 142.686875 -333.625 142.0546875 C-333.06167969 141.49362305 -332.49835938 140.93255859 -331.91796875 140.35449219 C-330.4375 139.1328125 -330.4375 139.1328125 -328.4375 139.1328125 C-328.4375 138.4728125 -328.4375 137.8128125 -328.4375 137.1328125 C-327.7775 137.1328125 -327.1175 137.1328125 -326.4375 137.1328125 C-326.4375 136.4728125 -326.4375 135.8128125 -326.4375 135.1328125 C-324.79296875 133.44140625 -324.79296875 133.44140625 -322.625 131.5703125 C-321.91730469 130.95027344 -321.20960938 130.33023438 -320.48046875 129.69140625 C-318.4375 128.1328125 -318.4375 128.1328125 -315.4375 127.1328125 C-315.4375 126.4728125 -315.4375 125.8128125 -315.4375 125.1328125 C-310.96691176 121.1328125 -310.96691176 121.1328125 -308.4375 121.1328125 C-308.4375 120.4728125 -308.4375 119.8128125 -308.4375 119.1328125 C-306.3277357 117.32315692 -304.21048891 115.62403285 -302 113.9453125 C-301.36416992 113.45571045 -300.72833984 112.9661084 -300.07324219 112.46166992 C-298.79345709 111.4762354 -297.51205616 110.4928956 -296.22900391 109.51171875 C-293.15402526 107.14493224 -290.13546298 104.70617752 -287.109375 102.27734375 C-285.4375 101.1328125 -285.4375 101.1328125 -283.4375 101.1328125 C-283.4375 100.4728125 -283.4375 99.8128125 -283.4375 99.1328125 C-281.71706284 97.85374404 -279.93241932 96.66070259 -278.125 95.5078125 C-273.91278355 92.77234958 -269.79590327 89.98779791 -265.75 87.0078125 C-258.98251691 82.04628616 -252.18447552 77.464187 -244.80078125 73.47265625 C-242.2083004 72.00286958 -239.7400824 70.39477736 -237.25 68.7578125 C-231.92562977 65.31791039 -226.37518927 62.5389832 -220.68359375 59.77734375 C-217.9268234 58.3807128 -215.38613872 56.89669378 -212.8125 55.1953125 C-209.4375 53.1328125 -209.4375 53.1328125 -205.4375 53.1328125 C-205.4375 52.4728125 -205.4375 51.8128125 -205.4375 51.1328125 C-204.303125 50.7409375 -203.16875 50.3490625 -202 49.9453125 C-198.79641367 48.75314898 -195.89888419 47.33753975 -192.9375 45.6328125 C-189.55131669 43.69124664 -186.25420205 42.22557424 -182.578125 40.9375 C-180.08925882 40.00190432 -177.7181008 38.8902737 -175.3125 37.7578125 C-169.92037263 35.26451684 -164.41290827 33.27183516 -158.796875 31.34375 C-156.5167738 30.52185305 -154.26525894 29.61691839 -152.046875 28.640625 C-147.37813877 26.69026549 -142.62223721 25.37723874 -137.75390625 24.02734375 C-134.30433037 23.04798857 -131.11048723 21.99216185 -127.8046875 20.5703125 C-124.53891468 19.17610786 -121.53144085 18.35229653 -118.0625 17.6328125 C-113.38298079 16.61319249 -108.95387541 15.3549418 -104.4453125 13.7578125 C-101.47523039 12.83327332 -98.51885973 12.51798247 -95.4375 12.1328125 C-95.1075 11.8028125 -94.7775 11.4728125 -94.4375 11.1328125 C-92.3802083 10.81357758 -90.32136479 10.62119898 -88.25 10.4140625 C-86.4207467 10.31283207 -86.4207467 10.31283207 -85.4375 9.1328125 C-84.05117525 8.84957888 -82.65389829 8.61934248 -81.25390625 8.4140625 C-79.98643555 8.22263672 -79.98643555 8.22263672 -78.69335938 8.02734375 C-77.80455078 7.89714844 -76.91574219 7.76695313 -76 7.6328125 C-74.25084679 7.37547168 -72.50212254 7.11519298 -70.75390625 6.8515625 C-69.97474854 6.73748047 -69.19559082 6.62339844 -68.39282227 6.50585938 C-66.36816451 6.21134055 -66.36816451 6.21134055 -64.4375 5.1328125 C-56.97499346 3.70713961 -49.47468347 2.87654171 -41.8984375 2.37890625 C-39.30411844 2.21071913 -39.30411844 2.21071913 -36.4375 1.1328125 C-33.94112186 0.89900022 -31.46675971 0.71487656 -28.96484375 0.57861328 C-28.21363754 0.53650286 -27.46243134 0.49439243 -26.6884613 0.45100594 C-17.79408405 -0.00652326 -8.90385594 -0.01191227 0 0 Z " fill="#282828" transform="translate(489.4375,1.8671875)"/>
<path d="M0 0 C5.38106283 0.00377208 10.76210724 0.00240611 16.1431694 -0.00180173 C46.94714419 -0.0252227 77.74463574 0.01571371 108.54453659 0.57388186 C109.66119705 0.59329711 110.77785751 0.61271235 111.92835617 0.63271594 C121.99967894 0.81348949 132.03029381 1.01120957 142.06895065 1.89639163 C147.19867165 2.31420292 152.33884173 2.4381095 157.48203659 2.59341311 C159.85053307 2.67198152 162.21902244 2.75076447 164.58750534 2.82974124 C168.24188994 2.94852947 171.896309 3.06535258 175.55088425 3.17812991 C189.96810587 3.62799719 204.27873197 4.30851912 218.62095261 5.87768435 C221.86467538 6.23172903 225.11075101 6.56203752 228.35674667 6.89448428 C230.67812945 7.13596476 232.99811258 7.38854424 235.31797409 7.64419436 C238.32101483 7.97041942 241.32238161 8.24940555 244.33359909 8.48794436 C273.50177382 10.96641306 298.69224388 21.21743912 318.04453659 43.69106936 C326.30762535 54.43308475 331.20301701 66.67805727 334.54453659 79.69106936 C334.73870163 80.43872561 334.93286667 81.18638186 335.1329155 81.95669436 C338.75428622 96.82305087 340.38622454 112.10366471 341.79990768 127.30996585 C342.04609041 129.95778147 342.30045713 132.60471376 342.55625534 135.25161624 C346.06605364 171.86918256 347.11802913 208.60768219 347.10703659 245.37856936 C347.10785233 246.67256656 347.10866806 247.96656375 347.10950851 249.29977298 C347.10924217 253.01880231 347.10040744 256.73768918 347.08750534 260.45669436 C347.08630692 261.5465665 347.08510849 262.63643863 347.08387375 263.75933719 C347.04465544 270.26336425 346.71344826 276.69032681 346.14954758 283.17031741 C345.84850698 287.04210612 345.76469666 290.90563841 345.6797905 294.78701663 C345.23009069 313.89624026 343.1708555 332.84560923 341.15909958 351.84048343 C340.94011229 353.93204914 340.72806438 356.02411369 340.52061081 358.11685061 C337.14968928 392.05790366 331.53981108 423.47067473 304.91953659 447.12856936 C288.58694252 460.31523841 268.45815149 465.82142337 247.91953659 468.12856936 C245.87762728 468.46041308 243.83597232 468.79382462 241.79453659 469.12856936 C233.13951057 470.38622189 224.41569872 470.86903193 215.69248581 471.43130374 C214.51960007 471.50800296 213.34671432 471.58470218 212.13828659 471.66372561 C211.08576706 471.72954837 210.03324753 471.79537112 208.94883347 471.86318851 C205.93930634 472.082984 205.93930634 472.082984 203.07543564 472.62757754 C200.14610996 473.09260136 197.35718129 473.31278963 194.39585495 473.40981936 C193.33712677 473.44655765 192.27839859 473.48329593 191.18758774 473.52114749 C189.49062508 473.57432132 189.49062508 473.57432132 187.75938034 473.62856936 C186.57791931 473.66917483 185.39645828 473.7097803 184.1791954 473.75161624 C180.40525772 473.88100075 176.63117684 474.00524562 172.85703659 474.12856936 C169.10790744 474.25229183 165.35883543 474.37723798 161.60985947 474.50552249 C159.28136918 474.58509897 156.95278873 474.66209729 154.62411118 474.73599124 C149.42001572 474.91288864 144.24957541 475.16773926 139.06235886 475.6251514 C128.91033031 476.44095671 118.72350449 476.50627634 108.54453659 476.68325686 C107.38928482 476.7041928 106.23403305 476.72512874 105.04377365 476.74669909 C74.64373052 477.28555403 44.2428762 477.28091363 13.83908367 477.25713873 C8.45801734 477.25336666 3.07696944 477.25473574 -2.30409622 477.25894046 C-55.33183526 477.29898188 -108.28603916 477.07496124 -161.23842239 473.91696048 C-164.99952571 473.69586971 -168.76128898 473.48736466 -172.52309036 473.27854609 C-189.86441016 472.3126083 -207.19091658 471.25746315 -224.48280716 469.61294436 C-225.69025085 469.49996005 -226.89769455 469.38697574 -228.14172745 469.27056766 C-255.81830433 466.48479421 -279.16306188 459.09534122 -299.08046341 439.12856936 C-299.77140091 438.44923343 -300.46233841 437.76989749 -301.17421341 437.06997561 C-314.2217583 423.28109294 -320.02884772 403.8057501 -323.11561966 385.51528811 C-323.28358551 384.53276065 -323.45155136 383.55023318 -323.62460709 382.53793216 C-325.52060388 371.03977538 -326.65926598 359.47410415 -327.76796341 347.87856936 C-327.98138625 345.71573284 -328.19557695 343.55297195 -328.41054153 341.39028811 C-328.9794594 335.6375147 -329.53748311 329.88384852 -330.08046341 324.12856936 C-330.17207748 323.17175265 -330.26369156 322.21493594 -330.35808182 321.22912478 C-330.81612075 316.35307476 -331.21198503 311.50236485 -331.36171341 306.60513186 C-331.39909622 305.48106936 -331.43647903 304.35700686 -331.47499466 303.19888186 C-331.50979935 302.06192874 -331.54460403 300.92497561 -331.58046341 299.75356936 C-331.65069824 297.47483929 -331.72360907 295.19619011 -331.79921341 292.91763186 C-331.82950638 291.92457034 -331.85979935 290.93150882 -331.89101028 289.90835452 C-332.05717428 286.59321154 -332.3110179 283.30346584 -332.58754349 279.99624515 C-333.09930738 273.47402705 -333.24114896 266.99679578 -333.24843216 260.45669436 C-333.25266693 259.27662311 -333.2569017 258.09655185 -333.2612648 256.88072085 C-333.27113997 253.04663399 -333.27117911 249.21266673 -333.26796341 245.37856936 C-333.26769653 244.71931838 -333.26742966 244.0600674 -333.26715469 243.38083911 C-333.24961539 208.81564992 -332.18320208 174.38216167 -329.14296341 139.94106936 C-329.06364578 139.04010531 -328.98432816 138.13914126 -328.90260696 137.21087527 C-322.33851339 64.02190759 -322.33851339 64.02190759 -300.08046341 39.12856936 C-299.3418306 38.29583499 -298.60319778 37.46310061 -297.84218216 36.60513186 C-265.65070186 2.35887623 -209.38494848 6.11683435 -166.20546341 3.50356936 C-165.17766769 3.4411304 -164.14987198 3.37869143 -163.09093094 3.31436038 C-162.08450546 3.25369388 -161.07807999 3.19302737 -160.04115677 3.13052249 C-159.16785217 3.07787234 -158.29454758 3.0252222 -157.39477921 2.97097659 C-136.27933261 1.75525875 -115.16474367 0.95770318 -94.01796341 0.57388186 C-92.89018478 0.55294593 -91.76240616 0.53200999 -90.60045242 0.51043963 C-60.40190711 -0.03499077 -30.20237101 -0.02361728 0 0 Z " fill="#FEFEFE" transform="translate(505.0804634094238,272.87143063545227)"/>
<path d="M0 0 C4.62774154 1.54258051 7.95322097 2.94931245 12.078125 5.34375 C12.6422258 5.66889587 13.2063266 5.99404175 13.78752136 6.32904053 C14.98942382 7.02253967 16.18993105 7.71846173 17.38912964 8.41662598 C19.91046787 9.88451563 22.43846491 11.3407487 24.96629333 12.79742432 C26.22798498 13.52451496 27.4893495 14.25217356 28.75038147 14.98040771 C33.61790647 17.78919048 38.51496247 20.5391033 43.4375 23.25 C52.45770696 28.22961281 61.39743596 33.34683953 70.33544922 38.47216797 C83.00528691 45.73695121 95.69442035 52.96618243 108.41357422 60.14428711 C115.64766927 64.22922962 122.86411883 68.34420055 130.07275391 72.47387695 C135.66765822 75.67616108 141.27802462 78.84979636 146.89624023 82.01098633 C156.69203182 87.52428039 166.40943669 93.13657504 176 99 C173.58310212 101.69407427 170.99835145 103.2670893 167.8359375 105.00390625 C166.80549316 105.57423584 165.77504883 106.14456543 164.71337891 106.73217773 C163.61171387 107.33618408 162.51004883 107.94019043 161.375 108.5625 C154.07325982 112.60470112 146.78844907 116.65441723 139.625 120.9375 C131.10074369 126.01735271 122.41349782 130.80206029 113.73242188 135.60644531 C106.4024136 139.66331821 99.09971815 143.75711621 91.84130859 147.94091797 C87.87879657 150.22007166 83.90706776 152.48316599 79.9375 154.75 C74.57735259 157.81149659 69.21787013 160.87410192 63.86328125 163.9453125 C53.34637953 169.97323138 42.7916307 175.92857475 32.20336914 181.83032227 C24.68961034 186.02717015 17.23018475 190.30960583 9.83544922 194.71313477 C9.12018066 195.13393311 8.40491211 195.55473145 7.66796875 195.98828125 C7.05203857 196.35477783 6.4361084 196.72127441 5.80151367 197.09887695 C4 198 4 198 0 199 C0 133.33 0 67.66 0 0 Z " fill="#282828" transform="translate(443,412)"/>
</svg>
